<svg width="154" height="81" viewBox="0 0 154 81" fill="none" xmlns="http://www.w3.org/2000/svg">
<path d="M153.1 0V80.6816L132.2 80.0764H25.2737V14.2561L56.4735 0H153.1Z" fill="#F0F5FF"/>
<path opacity="0.1" d="M153.1 0V0.248498L145.597 5.2203L132.2 14.095H25.2737L56.4735 0H153.1Z" fill="#2173D3"/>
<path d="M124.739 8.74872H59.782L64.6159 5.83252H126.855L124.739 8.74872Z" fill="white"/>
<path d="M152.679 80.5H0.321429C0.23618 80.5 0.154428 80.4737 0.0941489 80.4268C0.0338694 80.3799 0 80.3163 0 80.25C0 80.1837 0.0338694 80.1201 0.0941489 80.0732C0.154428 80.0263 0.23618 80 0.321429 80H152.679C152.764 80 152.846 80.0263 152.906 80.0732C152.966 80.1201 153 80.1837 153 80.25C153 80.3163 152.966 80.3799 152.906 80.4268C152.846 80.4737 152.764 80.5 152.679 80.5Z" fill="#F0F5FF"/>
<path opacity="0.1" d="M153 0V81L132 80.3925L132.152 14.1594L145.461 5.3008L152.878 0H153Z" fill="#537BB8"/>
</svg>
