<svg width="387" height="346" viewBox="0 0 387 346" fill="none" xmlns="http://www.w3.org/2000/svg">
<g clip-path="url(#clip0_245_116)">
<path fill-rule="evenodd" clip-rule="evenodd" d="M105.82 344.757C14.1381 335.884 -29.9949 255.209 -84.2234 192.925C-133.637 136.171 -196.408 80.7039 -184.536 11.2691C-171.705 -63.7726 -106.69 -126.793 -24.1346 -158.507C56.7918 -189.595 152.28 -184.741 229.606 -147.826C300.992 -113.747 327.418 -45.9054 349.935 20.0707C374.811 92.9575 408.867 171.77 360.595 235.975C307.271 306.898 205.529 354.407 105.82 344.757Z" fill="url(#paint0_linear_245_116)"/>
<path fill-rule="evenodd" clip-rule="evenodd" d="M108.079 344.825C31.6509 335.969 -5.13948 255.448 -50.3457 193.282C-91.5384 136.636 -143.866 81.275 -133.969 11.9725C-123.273 -62.9263 -69.0747 -125.826 -0.254164 -157.48C67.2081 -188.509 146.809 -183.665 211.271 -146.82C270.78 -112.806 292.809 -45.0932 311.58 20.7573C332.317 93.5052 360.707 172.168 320.466 236.251C276.014 307.038 191.2 354.457 108.079 344.825Z" fill="url(#paint1_linear_245_116)"/>
<path fill-rule="evenodd" clip-rule="evenodd" d="M-139.94 -130.161C-136.38 -207.007 -58.5141 -249.278 0.439734 -298.673C54.1595 -343.683 105.826 -399.71 175.717 -394.636C251.252 -389.152 317.814 -339.446 354.183 -272.992C389.834 -207.85 390.5 -128.116 358.164 -61.2677C328.312 0.444846 262.215 27.1055 197.754 50.3873C126.54 76.1079 49.9484 109.872 -16.8283 74.1696C-90.5923 34.7316 -143.81 -46.5846 -139.94 -130.161Z" fill="#F0F5FF"/>
</g>
<defs>
<linearGradient id="paint0_linear_245_116" x1="341" y1="84" x2="366.821" y2="341.811" gradientUnits="userSpaceOnUse">
<stop stop-color="#F0F5FF"/>
<stop offset="1" stop-color="#FFFBE0"/>
</linearGradient>
<linearGradient id="paint1_linear_245_116" x1="130" y1="187.5" x2="127.714" y2="2.49736" gradientUnits="userSpaceOnUse">
<stop stop-color="#F0F5FF"/>
<stop offset="1" stop-color="#FFFBE0"/>
</linearGradient>
<clipPath id="clip0_245_116">
<rect width="387" height="346" fill="white"/>
</clipPath>
</defs>
</svg>
