<svg width="387" height="346" viewBox="0 0 387 346" fill="none" xmlns="http://www.w3.org/2000/svg">
<g clip-path="url(#clip0_36_2029)">
<path fill-rule="evenodd" clip-rule="evenodd" d="M105.82 344.757C14.1381 335.884 -29.9949 255.209 -84.2234 192.925C-133.637 136.171 -196.408 80.7039 -184.536 11.2691C-171.705 -63.7726 -106.69 -126.793 -24.1346 -158.507C56.7918 -189.595 152.28 -184.741 229.606 -147.826C300.992 -113.747 327.418 -45.9054 349.935 20.0707C374.811 92.9575 408.867 171.77 360.595 235.975C307.271 306.898 205.529 354.407 105.82 344.757Z" fill="url(#paint0_linear_36_2029)"/>
<path fill-rule="evenodd" clip-rule="evenodd" d="M108.079 344.825C31.6509 335.969 -5.13948 255.448 -50.3457 193.282C-91.5384 136.636 -143.866 81.275 -133.969 11.9725C-123.273 -62.9263 -69.0747 -125.826 -0.254164 -157.48C67.2081 -188.509 146.809 -183.665 211.271 -146.82C270.78 -112.806 292.809 -45.0932 311.58 20.7573C332.317 93.5052 360.707 172.168 320.466 236.251C276.014 307.038 191.2 354.457 108.079 344.825Z" fill="url(#paint1_linear_36_2029)"/>
<path fill-rule="evenodd" clip-rule="evenodd" d="M-139.94 -130.161C-136.38 -207.007 -58.5141 -249.278 0.439734 -298.673C54.1595 -343.683 105.826 -399.71 175.717 -394.636C251.252 -389.152 317.814 -339.446 354.183 -272.992C389.834 -207.85 390.5 -128.116 358.164 -61.2677C328.312 0.444846 262.215 27.1055 197.754 50.3873C126.54 76.1079 49.9484 109.872 -16.8283 74.1696C-90.5923 34.7316 -143.81 -46.5846 -139.94 -130.161Z" fill="#F0F5FF"/>
<mask id="mask0_36_2029" style="mask-type:alpha" maskUnits="userSpaceOnUse" x="-136" y="-179" width="476" height="526">
<path fill-rule="evenodd" clip-rule="evenodd" d="M107.232 345.078C30.8151 336.213 -5.96978 255.61 -51.1692 193.381C-92.3557 136.677 -144.675 81.2594 -134.78 11.8863C-124.085 -63.0888 -69.8954 -126.053 -1.08519 -157.739C66.367 -188.8 145.956 -183.95 210.408 -147.068C269.908 -113.019 291.934 -45.2375 310.702 20.6801C331.436 93.5021 359.822 172.245 319.587 236.393C275.142 307.253 190.34 354.72 107.232 345.078Z" fill="url(#paint2_linear_36_2029)"/>
</mask>
<g mask="url(#mask0_36_2029)">
<path d="M-4 284H299V350H-4V284Z" fill="#DFE8F2"/>
<path d="M132 256H321V284H132V256Z" fill="#DFE8F2"/>
</g>
<g clip-path="url(#clip1_36_2029)">
<path d="M233.171 145.329C233.017 145.485 232.875 145.652 232.747 145.83L213.173 145.137L210.934 140.93L204.155 143.485L207.396 151.321C207.658 151.953 208.118 152.484 208.706 152.833C209.295 153.182 209.98 153.33 210.66 153.255L232.811 150.818C233.326 151.486 234.031 151.981 234.834 152.238C235.636 152.494 236.497 152.5 237.303 152.254C238.109 152.008 238.821 151.522 239.344 150.86C239.867 150.199 240.177 149.394 240.232 148.552C240.287 147.71 240.085 146.871 239.653 146.146C239.221 145.422 238.578 144.847 237.812 144.497C237.045 144.148 236.191 144.04 235.361 144.189C234.532 144.338 233.768 144.737 233.171 145.331V145.329Z" fill="#FFDBAC"/>
<path d="M195.684 124.887C201.996 124.887 207.114 119.759 207.114 113.435C207.114 107.11 201.996 101.983 195.684 101.983C189.371 101.983 184.254 107.11 184.254 113.435C184.254 119.759 189.371 124.887 195.684 124.887Z" fill="#1A1B23"/>
<path d="M186.762 107.26C188.609 105.41 188.983 102.784 187.598 101.396C186.213 100.008 183.592 100.383 181.745 102.234C179.898 104.085 179.524 106.71 180.909 108.098C182.294 109.486 184.915 109.111 186.762 107.26Z" fill="#1A1B23"/>
<path d="M207.597 103.623C208.366 101.818 207.043 99.5217 204.641 98.4936C202.239 97.4655 199.667 98.0954 198.898 99.9005C198.128 101.706 199.452 104.002 201.854 105.03C204.256 106.058 206.827 105.429 207.597 103.623Z" fill="#1A1B23"/>
<path d="M212.314 144.357L203.542 148.286C203.293 148.398 203.022 148.455 202.749 148.452C202.475 148.45 202.206 148.388 201.958 148.272C201.711 148.156 201.491 147.987 201.314 147.778C201.138 147.569 201.008 147.325 200.934 147.061L198.347 137.82C197.785 136.538 197.753 135.084 198.258 133.778C198.763 132.472 199.764 131.42 201.042 130.852C202.32 130.284 203.77 130.246 205.076 130.748C206.381 131.249 207.435 132.248 208.006 133.526L213.141 141.592C213.288 141.823 213.384 142.083 213.422 142.354C213.459 142.625 213.438 142.902 213.359 143.164C213.281 143.426 213.147 143.669 212.966 143.875C212.786 144.08 212.563 144.245 212.314 144.357H212.314Z" fill="#0B4DAF"/>
<path d="M171.804 183.022C172.408 182.881 172.974 182.61 173.462 182.226C173.95 181.843 174.349 181.357 174.629 180.802C174.909 180.248 175.065 179.639 175.085 179.018C175.105 178.396 174.988 177.779 174.744 177.207L190.385 141.802L181.438 139.544L168.877 175.056C167.946 175.531 167.221 176.331 166.84 177.305C166.459 178.28 166.448 179.36 166.809 180.342C167.17 181.324 167.877 182.139 168.798 182.633C169.719 183.127 170.788 183.265 171.804 183.022Z" fill="#FFDBAC"/>
<path d="M167.54 247.197L172.09 248.857L180.645 232.064L173.93 229.614L167.54 247.197Z" fill="#FFDBAC"/>
<path d="M179.327 256.291L165.027 251.075L167.039 245.539L175.813 248.74C177.279 249.275 178.472 250.37 179.131 251.787C179.79 253.203 179.86 254.823 179.327 256.291L179.327 256.291Z" fill="#0C53BD"/>
<path d="M178.302 237.533C178.023 237.533 177.747 237.471 177.495 237.352L172.266 234.87C171.837 234.668 171.5 234.313 171.319 233.875C171.139 233.436 171.129 232.946 171.291 232.5L186.048 191.556C186.171 191.217 186.386 190.92 186.67 190.698C186.955 190.477 187.295 190.341 187.654 190.306C188.012 190.272 188.372 190.339 188.694 190.501C189.015 190.664 189.284 190.914 189.469 191.223L197.274 204.257C197.448 204.547 197.541 204.879 197.545 205.217C197.549 205.556 197.462 205.889 197.295 206.183L179.961 236.575C179.793 236.867 179.551 237.109 179.26 237.277C178.969 237.445 178.639 237.534 178.302 237.533V237.533Z" fill="#1A1B23"/>
<path d="M196.046 125.888C201.404 125.888 205.747 121.536 205.747 116.169C205.747 110.801 201.404 106.449 196.046 106.449C190.689 106.449 186.346 110.801 186.346 116.169C186.346 121.536 190.689 125.888 196.046 125.888Z" fill="#FFDBAC"/>
<path d="M209.77 160.358L192.594 155.625L183.459 137.32C183.02 136.441 182.813 135.463 182.857 134.481C182.901 133.499 183.195 132.544 183.711 131.708C184.227 130.872 184.947 130.181 185.804 129.703C186.662 129.224 187.627 128.973 188.608 128.973H202.273C203.692 128.972 205.06 129.496 206.116 130.445C209.782 133.735 217.483 143.221 209.844 160.192L209.77 160.358Z" fill="#0B4DAF"/>
<path d="M188.268 148.134L179.566 144.053C179.318 143.937 179.099 143.768 178.922 143.559C178.745 143.351 178.615 143.106 178.541 142.842C178.467 142.579 178.451 142.302 178.493 142.031C178.535 141.761 178.635 141.502 178.786 141.274L184.075 133.272C184.675 132.007 185.752 131.032 187.069 130.561C188.386 130.089 189.835 130.16 191.1 130.758C192.364 131.356 193.341 132.431 193.816 133.749C194.29 135.067 194.224 136.519 193.632 137.788L190.897 146.954C190.819 147.216 190.685 147.459 190.505 147.665C190.324 147.871 190.102 148.035 189.852 148.147C189.603 148.259 189.332 148.316 189.059 148.314C188.785 148.311 188.516 148.25 188.268 148.134H188.268Z" fill="#0B4DAF"/>
<path d="M198.796 251.786H203.639L205.942 233.073L198.796 233.074L198.796 251.786Z" fill="#FFDBAC"/>
<path d="M212.977 256.29L197.759 256.291L197.759 250.4L207.097 250.4C208.657 250.4 210.152 251.02 211.255 252.125C212.358 253.23 212.977 254.728 212.977 256.29Z" fill="#0C53BD"/>
<path d="M200.625 244.655C200.19 244.656 199.767 244.506 199.429 244.231C199.091 243.956 198.858 243.573 198.77 243.146C197.378 236.576 190.149 202.921 184.507 185.586C178.767 167.949 188.543 159.915 190.561 158.484C190.776 158.332 190.947 158.125 191.056 157.885L192.522 154.654C192.674 154.32 192.919 154.038 193.227 153.839C193.534 153.641 193.893 153.536 194.259 153.536H194.271C205.262 153.601 208.957 157.073 210.035 158.562C210.194 158.784 210.303 159.038 210.355 159.306C210.406 159.574 210.399 159.851 210.333 160.116L203.378 188.862C203.335 189.041 203.326 189.225 203.35 189.407L210.269 241.602C210.302 241.853 210.285 242.108 210.219 242.352C210.153 242.596 210.039 242.825 209.883 243.024C209.728 243.224 209.535 243.391 209.315 243.515C209.094 243.639 208.852 243.718 208.601 243.747L200.848 244.643C200.774 244.651 200.7 244.655 200.625 244.655Z" fill="#1A1B23"/>
<path d="M185.853 110.055C188.07 111.586 190.701 112.401 193.393 112.39C192.433 113.057 191.34 113.508 190.189 113.711C193.768 114.48 197.468 114.501 201.056 113.772C201.853 113.644 202.623 113.379 203.33 112.989C203.683 112.792 203.99 112.522 204.232 112.198C204.474 111.874 204.645 111.502 204.735 111.108C204.973 109.743 203.912 108.503 202.809 107.668C201.12 106.408 199.173 105.54 197.108 105.127C195.044 104.713 192.914 104.765 190.871 105.278C189.538 105.623 188.202 106.207 187.336 107.28C186.47 108.352 186.213 110.007 187.038 111.111L185.853 110.055Z" fill="#1A1B23"/>
<path d="M299.733 220V257.091L290.13 256.813H241V226.554L255.335 220H299.733Z" fill="#08387F"/>
<path opacity="0.1" d="M299.718 219.53V219.646L296.271 221.957L290.115 226.084H240.985L255.321 219.53H299.718Z" fill="#F0F5FF"/>
<path opacity="0.1" d="M299.718 219.53V256.621L290.115 256.343L290.185 226.014L296.271 221.957L299.662 219.53H299.718Z" fill="white"/>
<path d="M286.774 223.504H256.852L259.078 222.249H287.749L286.774 223.504Z" fill="white"/>
<path d="M270.864 152.067H238.477C237.535 152.066 236.631 151.69 235.965 151.023C235.299 150.355 234.924 149.45 234.923 148.506V113.287C234.924 112.343 235.299 111.438 235.965 110.77C236.631 110.102 237.535 109.727 238.477 109.726H270.864C271.806 109.727 272.71 110.102 273.376 110.77C274.042 111.438 274.417 112.343 274.418 113.287V148.506C274.417 149.45 274.042 150.355 273.376 151.023C272.71 151.69 271.806 152.066 270.864 152.067V152.067ZM238.477 110.517C237.744 110.518 237.042 110.81 236.523 111.329C236.005 111.849 235.713 112.553 235.713 113.287V148.506C235.713 149.24 236.005 149.944 236.523 150.463C237.042 150.983 237.744 151.275 238.477 151.276H270.864C271.597 151.275 272.3 150.983 272.818 150.463C273.336 149.944 273.628 149.24 273.629 148.506V113.287C273.628 112.553 273.336 111.849 272.818 111.329C272.3 110.81 271.597 110.518 270.864 110.517H238.477Z" fill="#08387F"/>
<path d="M245 124.367H241.84C241.369 124.366 240.917 124.179 240.584 123.845C240.251 123.511 240.064 123.058 240.063 122.586V119.42C240.064 118.948 240.251 118.496 240.584 118.162C240.917 117.828 241.369 117.64 241.84 117.64H245C245.471 117.64 245.923 117.828 246.256 118.162C246.589 118.496 246.777 118.948 246.777 119.42V122.586C246.777 123.058 246.589 123.511 246.256 123.845C245.923 124.179 245.471 124.366 245 124.367V124.367Z" fill="#0B4DAF"/>
<path d="M245 134.26H241.84C241.369 134.259 240.917 134.072 240.584 133.738C240.251 133.404 240.064 132.951 240.063 132.479V129.313C240.064 128.841 240.251 128.389 240.584 128.055C240.917 127.721 241.369 127.533 241.84 127.533H245C245.471 127.533 245.923 127.721 246.256 128.055C246.589 128.389 246.777 128.841 246.777 129.313V132.479C246.777 132.951 246.589 133.404 246.256 133.738C245.923 134.072 245.471 134.259 245 134.26V134.26Z" fill="#DFE8F2"/>
<path d="M268.093 122.443H253.342C253.028 122.442 252.726 122.317 252.504 122.095C252.282 121.872 252.157 121.57 252.157 121.255V120.751C252.157 120.437 252.282 120.135 252.504 119.912C252.726 119.69 253.028 119.565 253.342 119.564H268.093C268.407 119.565 268.708 119.69 268.931 119.912C269.153 120.135 269.278 120.437 269.278 120.751V121.255C269.278 121.57 269.153 121.872 268.931 122.095C268.708 122.317 268.407 122.442 268.093 122.443V122.443Z" fill="#0B4DAF"/>
<path d="M268.093 132.335H253.342C253.028 132.335 252.726 132.21 252.504 131.987C252.282 131.765 252.157 131.463 252.157 131.148V130.644C252.157 130.329 252.282 130.028 252.504 129.805C252.726 129.583 253.028 129.457 253.342 129.457H268.093C268.407 129.457 268.708 129.583 268.931 129.805C269.153 130.028 269.278 130.329 269.278 130.644V131.148C269.278 131.463 269.153 131.765 268.931 131.987C268.708 132.21 268.407 132.335 268.093 132.335V132.335Z" fill="#DFE8F2"/>
<path d="M245 144.153H241.84C241.369 144.152 240.917 143.964 240.584 143.631C240.251 143.297 240.064 142.844 240.063 142.372V139.206C240.064 138.734 240.251 138.282 240.584 137.948C240.917 137.614 241.369 137.426 241.84 137.426H245C245.471 137.426 245.923 137.614 246.256 137.948C246.589 138.282 246.777 138.734 246.777 139.206V142.372C246.777 142.844 246.589 143.297 246.256 143.631C245.923 143.964 245.471 144.152 245 144.153V144.153Z" fill="#DFE8F2"/>
<path d="M268.093 142.228H253.342C253.028 142.228 252.726 142.103 252.504 141.88C252.282 141.658 252.157 141.356 252.157 141.041V140.537C252.157 140.222 252.282 139.921 252.504 139.698C252.726 139.476 253.028 139.35 253.342 139.35H268.093C268.407 139.35 268.708 139.476 268.931 139.698C269.153 139.921 269.278 140.222 269.278 140.537V141.041C269.278 141.356 269.153 141.658 268.931 141.88C268.708 142.103 268.407 142.228 268.093 142.228Z" fill="#DFE8F2"/>
<path d="M299.643 256.6H130.357C130.262 256.6 130.172 256.568 130.105 256.512C130.038 256.456 130 256.38 130 256.3C130 256.22 130.038 256.144 130.105 256.088C130.172 256.032 130.262 256 130.357 256H299.643C299.738 256 299.828 256.032 299.895 256.088C299.962 256.144 300 256.22 300 256.3C300 256.38 299.962 256.456 299.895 256.512C299.828 256.568 299.738 256.6 299.643 256.6Z" fill="#08387F"/>
</g>
<g clip-path="url(#clip2_36_2029)">
<path d="M147.16 260.806L140.06 267.324L145.703 257.884C141.257 249.845 133.987 242.899 133.987 242.899C133.987 242.899 118.904 257.308 118.904 268.635C118.904 279.962 125.657 283.917 133.987 283.917C142.317 283.917 149.07 279.962 149.07 268.635C149.07 266.114 148.322 263.44 147.16 260.806Z" fill="#08387F"/>
<path d="M138.234 267.677V268.235C138.201 274.725 137.103 279.788 134.95 283.354C134.919 283.406 134.886 283.456 134.855 283.509L134.614 283.362L134.384 283.218C136.774 279.368 137.619 273.926 137.65 268.265C137.652 268.083 137.655 267.898 137.652 267.713C137.644 265.316 137.497 262.892 137.261 260.537C137.245 260.355 137.225 260.17 137.206 259.985C136.879 256.878 136.408 253.909 135.925 251.331C135.892 251.148 135.856 250.966 135.82 250.786C134.986 246.425 134.135 243.265 133.941 242.566C133.918 242.48 133.905 242.433 133.902 242.422L134.165 242.348L134.168 242.345L134.434 242.27C134.437 242.281 134.484 242.439 134.562 242.732C134.858 243.827 135.629 246.798 136.386 250.717C136.419 250.894 136.455 251.076 136.488 251.259C136.882 253.351 137.267 255.689 137.572 258.144C137.649 258.76 137.719 259.368 137.78 259.968C137.802 260.153 137.821 260.338 137.838 260.521C138.093 263.066 138.225 265.452 138.234 267.677Z" fill="#1F4B8C"/>
<path d="M136.385 250.717C136.2 250.742 136.011 250.767 135.82 250.786C135.301 250.839 134.779 250.866 134.257 250.866C132.031 250.869 129.834 250.374 127.826 249.418C127.709 249.564 127.593 249.711 127.474 249.86C129.586 250.888 131.906 251.421 134.257 251.419C134.814 251.419 135.371 251.389 135.925 251.331C136.114 251.311 136.302 251.286 136.488 251.259C138.021 251.039 139.512 250.589 140.909 249.924C140.79 249.772 140.674 249.623 140.56 249.476C139.237 250.092 137.831 250.511 136.385 250.717V250.717Z" fill="#1F4B8C"/>
<path d="M137.78 259.968C137.589 259.979 137.397 259.985 137.206 259.985C137.148 259.987 137.087 259.987 137.029 259.987C134.618 259.987 132.242 259.406 130.105 258.293C127.968 257.18 126.132 255.568 124.755 253.594C124.644 253.757 124.533 253.92 124.425 254.086C125.86 256.083 127.753 257.71 129.944 258.832C132.136 259.955 134.565 260.54 137.029 260.54C137.106 260.54 137.184 260.54 137.262 260.537C137.456 260.535 137.647 260.529 137.838 260.521C140.798 260.37 143.651 259.372 146.057 257.646C145.968 257.483 145.88 257.32 145.788 257.157C143.45 258.851 140.667 259.828 137.78 259.968V259.968Z" fill="#1F4B8C"/>
<path d="M138.234 267.677C138.04 267.693 137.846 267.704 137.652 267.712C137.444 267.721 137.237 267.726 137.029 267.726C133.789 267.723 130.637 266.672 128.045 264.733C125.454 262.794 123.562 260.07 122.653 256.969C122.529 257.193 122.404 257.414 122.285 257.638C123.309 260.732 125.285 263.425 127.931 265.335C130.578 267.246 133.761 268.276 137.029 268.279C137.237 268.279 137.444 268.276 137.65 268.265C137.846 268.26 138.04 268.249 138.234 268.235C142.154 267.929 145.81 266.15 148.463 263.257C148.405 263.052 148.338 262.851 148.272 262.646C145.709 265.561 142.109 267.365 138.234 267.677Z" fill="#1F4B8C"/>
<path d="M121.629 158.064L44.4056 148.248C44.1975 148.221 43.988 148.207 43.7783 148.207C43.5716 148.207 43.365 148.22 43.16 148.246C42.9553 148.272 42.7525 148.312 42.553 148.364C42.3512 148.418 42.153 148.485 41.9598 148.564C41.7705 148.641 41.586 148.73 41.4075 148.83C41.2266 148.931 41.0518 149.042 40.884 149.163C40.7124 149.287 40.5479 149.421 40.3915 149.564C40.23 149.711 40.0765 149.866 39.9317 150.03C39.7831 150.198 39.6432 150.373 39.5126 150.556C39.3807 150.741 39.2569 150.933 39.1412 151.132C39.0256 151.333 38.9182 151.541 38.8192 151.757C38.7202 151.974 38.6299 152.197 38.5483 152.428C38.4638 152.667 38.3897 152.911 38.3261 153.16C38.2625 153.409 38.2093 153.663 38.1666 153.921C38.1248 154.179 38.0927 154.441 38.0705 154.707C38.0482 154.973 38.0371 155.242 38.0371 155.515C38.038 155.787 38.0491 156.059 38.0705 156.329C38.0918 156.6 38.1239 156.868 38.1666 157.135C38.2097 157.402 38.2631 157.666 38.3267 157.928C38.3903 158.19 38.4644 158.449 38.549 158.705C38.6306 158.953 38.7209 159.194 38.8199 159.43C38.9189 159.666 39.0262 159.896 39.1419 160.12C39.2576 160.343 39.3814 160.56 39.5133 160.77C39.645 160.982 39.7847 161.185 39.9324 161.381C40.0801 161.576 40.2333 161.762 40.3922 161.94C40.551 162.116 40.7152 162.283 40.8847 162.439C41.0542 162.595 41.2287 162.741 41.4082 162.877C41.5858 163.011 41.7701 163.137 41.9604 163.252C42.1521 163.369 42.3502 163.475 42.5537 163.569C42.7511 163.661 42.9538 163.741 43.1606 163.809C43.3632 163.876 43.5697 163.93 43.7789 163.972C43.9861 164.013 44.1956 164.042 44.4062 164.057L121.629 169.689C121.854 169.706 122.08 169.683 122.297 169.623C122.407 169.592 122.515 169.553 122.619 169.504C122.727 169.454 122.832 169.396 122.931 169.33C123.032 169.263 123.129 169.189 123.22 169.11C123.316 169.027 123.407 168.938 123.493 168.844C123.583 168.745 123.668 168.641 123.747 168.532C123.829 168.421 123.908 168.302 123.984 168.176C124.059 168.051 124.131 167.919 124.198 167.782C124.266 167.645 124.329 167.503 124.387 167.356C124.446 167.208 124.501 167.056 124.551 166.899C124.601 166.741 124.647 166.579 124.688 166.412C124.731 166.24 124.769 166.064 124.8 165.885C124.831 165.706 124.858 165.525 124.88 165.341C124.902 165.157 124.918 164.97 124.929 164.781C124.939 164.592 124.945 164.401 124.945 164.208C124.944 164.015 124.939 163.823 124.929 163.632C124.919 163.44 124.903 163.251 124.88 163.062C124.859 162.874 124.832 162.687 124.8 162.502C124.768 162.317 124.731 162.134 124.688 161.952C124.647 161.777 124.601 161.606 124.551 161.439C124.501 161.274 124.447 161.111 124.387 160.951C124.328 160.791 124.265 160.636 124.198 160.485C124.131 160.335 124.06 160.189 123.984 160.048C123.908 159.907 123.829 159.772 123.747 159.645C123.665 159.517 123.58 159.396 123.493 159.282C123.405 159.168 123.314 159.061 123.22 158.961C123.129 158.864 123.033 158.771 122.931 158.684C122.832 158.598 122.728 158.519 122.619 158.447C122.516 158.378 122.408 158.317 122.297 158.264C122.19 158.213 122.08 158.17 121.966 158.136C121.856 158.103 121.743 158.079 121.629 158.064Z" fill="#0B4DAF"/>
<path d="M121.629 180.018L44.4056 178.174C43.9867 178.164 43.5681 178.206 43.16 178.301C42.9541 178.349 42.7514 178.409 42.553 178.482C42.3502 178.557 42.1521 178.643 41.9598 178.742C41.7698 178.839 41.5855 178.946 41.4075 179.064C41.2262 179.183 41.0514 179.313 40.884 179.451C40.7122 179.593 40.5478 179.744 40.3915 179.903C40.2324 180.065 40.0792 180.236 39.9317 180.418C39.7842 180.6 39.6445 180.79 39.5126 180.988C39.3807 181.186 39.2569 181.391 39.1412 181.603C39.0256 181.815 38.9182 182.035 38.8192 182.261C38.7202 182.487 38.6299 182.72 38.5483 182.96C38.4638 183.207 38.3897 183.459 38.3261 183.715C38.2624 183.971 38.2093 184.23 38.1666 184.492C38.1248 184.755 38.0927 185.02 38.0705 185.288C38.0482 185.557 38.0371 185.827 38.0371 186.1C38.038 186.372 38.0491 186.643 38.0705 186.911C38.0918 187.179 38.1239 187.444 38.1666 187.706C38.2097 187.967 38.2631 188.225 38.3267 188.481C38.3903 188.736 38.4644 188.987 38.5489 189.235C38.6306 189.475 38.7209 189.707 38.8199 189.933C38.9189 190.159 39.0262 190.378 39.1419 190.589C39.2576 190.801 39.3814 191.005 39.5133 191.202C39.645 191.398 39.7847 191.587 39.9324 191.768C40.0801 191.949 40.2333 192.119 40.3922 192.28C40.5485 192.438 40.7129 192.587 40.8847 192.728C41.0521 192.866 41.2269 192.994 41.4082 193.113C41.5862 193.229 41.7705 193.335 41.9604 193.431C42.1528 193.528 42.3509 193.614 42.5537 193.687C42.7521 193.759 42.9548 193.818 43.1606 193.864C43.3644 193.911 43.5709 193.944 43.7789 193.964C43.9874 193.984 44.1969 193.991 44.4062 193.984L121.629 191.642C121.742 191.638 121.855 191.625 121.966 191.603C122.079 191.58 122.189 191.548 122.297 191.507C122.408 191.465 122.515 191.414 122.619 191.356C122.728 191.294 122.832 191.225 122.931 191.149C123.032 191.071 123.129 190.988 123.22 190.899C123.316 190.806 123.407 190.708 123.493 190.605C123.58 190.5 123.665 190.388 123.747 190.267C123.829 190.147 123.908 190.02 123.984 189.887C124.059 189.753 124.131 189.614 124.198 189.47C124.266 189.327 124.329 189.178 124.387 189.025C124.446 188.869 124.501 188.71 124.551 188.549C124.601 188.387 124.647 188.221 124.688 188.049C124.731 187.874 124.769 187.696 124.8 187.513C124.831 187.331 124.858 187.147 124.88 186.961C124.902 186.774 124.918 186.585 124.929 186.395C124.939 186.205 124.945 186.014 124.945 185.82C124.944 185.629 124.939 185.438 124.929 185.247C124.919 185.056 124.903 184.867 124.88 184.681C124.859 184.494 124.832 184.31 124.8 184.129C124.768 183.948 124.73 183.769 124.688 183.591C124.646 183.42 124.601 183.253 124.551 183.091C124.501 182.928 124.446 182.771 124.387 182.618C124.329 182.465 124.266 182.316 124.199 182.173C124.131 182.029 124.06 181.891 123.984 181.758C123.908 181.625 123.829 181.498 123.748 181.379C123.666 181.259 123.581 181.147 123.493 181.042C123.407 180.94 123.317 180.842 123.221 180.75C123.129 180.662 123.033 180.579 122.932 180.502C122.832 180.427 122.728 180.358 122.619 180.297C122.516 180.24 122.408 180.19 122.297 180.148C122.189 180.108 122.079 180.077 121.966 180.055C121.855 180.033 121.742 180.021 121.629 180.018" fill="#DFE8F2"/>
<path d="M121.629 200.775L44.4056 206.406C44.1949 206.422 43.9854 206.45 43.7783 206.491C43.5691 206.533 43.3626 206.587 43.16 206.654C42.9531 206.722 42.7505 206.802 42.553 206.894C42.3495 206.989 42.1514 207.094 41.9598 207.211C41.7694 207.327 41.5851 207.452 41.4075 207.586C41.2278 207.723 41.0533 207.869 40.884 208.024C40.7147 208.18 40.5506 208.347 40.3915 208.524C40.2324 208.7 40.0792 208.887 39.9317 209.083C39.7842 209.28 39.6445 209.483 39.5126 209.694C39.3807 209.904 39.2569 210.121 39.1412 210.344C39.0256 210.568 38.9182 210.798 38.8192 211.034C38.7202 211.27 38.6299 211.511 38.5483 211.759C38.4638 212.014 38.3897 212.273 38.3261 212.536C38.2625 212.798 38.2093 213.062 38.1666 213.329C38.1248 213.595 38.0927 213.864 38.0705 214.134C38.0482 214.404 38.0371 214.676 38.0371 214.949C38.038 215.221 38.0491 215.49 38.0705 215.757C38.0918 216.023 38.1239 216.285 38.1666 216.543C38.2097 216.801 38.2631 217.055 38.3267 217.304C38.3903 217.553 38.4644 217.797 38.549 218.036C38.6306 218.267 38.7209 218.491 38.8199 218.707C38.9189 218.923 39.0262 219.131 39.1419 219.332C39.2576 219.532 39.3814 219.724 39.5133 219.908C39.6439 220.091 39.7837 220.266 39.9324 220.435C40.0772 220.598 40.2307 220.753 40.3922 220.9C40.5486 221.043 40.713 221.177 40.8847 221.301C41.0525 221.422 41.2273 221.533 41.4082 221.634C41.5867 221.734 41.7711 221.823 41.9604 221.9C42.1537 221.979 42.3518 222.046 42.5537 222.1C42.7532 222.152 42.956 222.192 43.1606 222.218C43.3657 222.244 43.5722 222.258 43.7789 222.257C43.9887 222.257 44.1982 222.243 44.4062 222.217L121.629 212.402C121.743 212.387 121.856 212.363 121.966 212.33C122.08 212.296 122.19 212.254 122.297 212.203C122.408 212.149 122.516 212.088 122.619 212.02C122.728 211.947 122.832 211.868 122.931 211.782C123.033 211.695 123.129 211.603 123.22 211.505C123.313 211.405 123.404 211.298 123.493 211.184C123.58 211.07 123.665 210.949 123.747 210.822C123.829 210.694 123.908 210.559 123.984 210.418C124.059 210.278 124.131 210.132 124.198 209.981C124.266 209.83 124.329 209.675 124.387 209.515C124.446 209.355 124.501 209.192 124.551 209.025C124.601 208.857 124.647 208.686 124.688 208.511C124.731 208.329 124.769 208.146 124.8 207.961C124.831 207.776 124.858 207.589 124.88 207.401C124.902 207.212 124.918 207.023 124.929 206.831C124.939 206.64 124.945 206.448 124.945 206.255C124.944 206.063 124.938 205.872 124.928 205.683C124.918 205.494 124.902 205.308 124.88 205.124C124.859 204.939 124.832 204.757 124.8 204.578C124.768 204.399 124.731 204.224 124.688 204.051C124.647 203.884 124.601 203.722 124.551 203.565C124.502 203.408 124.447 203.255 124.388 203.108C124.328 202.96 124.265 202.818 124.199 202.681C124.131 202.545 124.059 202.414 123.983 202.288C123.907 202.161 123.828 202.043 123.747 201.932C123.667 201.824 123.582 201.72 123.492 201.62C123.406 201.526 123.316 201.438 123.22 201.354C123.128 201.275 123.032 201.202 122.931 201.135C122.831 201.069 122.726 201.01 122.618 200.96C122.514 200.912 122.406 200.872 122.296 200.842C122.079 200.781 121.853 200.759 121.629 200.775" fill="#DFE8F2"/>
<path d="M79.5378 201.807C80.0269 202.618 80.7978 203.221 81.7038 203.503C82.6099 203.785 83.5882 203.725 84.4529 203.335C85.3176 202.945 86.0086 202.252 86.3946 201.387C86.7807 200.523 86.8349 199.547 86.5471 198.645L101.514 167.986L94.3497 163.655L81.4242 196.222C81.3749 196.241 81.3262 196.261 81.2783 196.282C81.2304 196.303 81.1827 196.325 81.1351 196.348C81.0876 196.37 81.0404 196.395 80.9935 196.42C80.9467 196.445 80.9002 196.471 80.8541 196.499C79.9738 197.029 79.3406 197.886 79.0937 198.881C78.8468 199.876 79.0064 200.929 79.5375 201.806L79.5378 201.807Z" fill="#FFDBAC"/>
<path d="M98.6569 179.808L88.0244 177.091C88.0244 177.091 88.3715 176.308 88.9358 175.012C89.5 173.716 90.2883 171.908 91.175 169.856C92.0618 167.803 93.0456 165.51 94.0066 163.244C94.9676 160.977 95.9021 158.737 96.6893 156.796C97.4764 154.855 98.3706 153.692 99.2693 153.041C100.013 152.477 100.95 152.229 101.876 152.35C102.596 152.456 103.285 152.718 103.894 153.115C104.182 153.294 104.453 153.499 104.703 153.728L107.169 158.198L98.6569 179.808Z" fill="#F0F5FF"/>
<path d="M13.5659 177.38C13.3084 177.399 13.0522 177.433 12.7984 177.48C12.5431 177.528 12.2905 177.589 12.042 177.665C11.7897 177.742 11.5417 177.832 11.2992 177.936C11.0511 178.042 10.8086 178.161 10.5728 178.292C10.3422 178.421 10.1167 178.562 9.89649 178.714C9.67626 178.866 9.46238 179.029 9.25483 179.203C9.04751 179.378 8.84631 179.563 8.65122 179.76C8.45613 179.958 8.26817 180.166 8.08732 180.384C7.90647 180.603 7.73507 180.83 7.57312 181.064C7.41118 181.298 7.25925 181.54 7.11733 181.789C6.97674 182.038 6.84527 182.294 6.72292 182.556C6.60058 182.819 6.48936 183.088 6.38925 183.362C6.28493 183.647 6.19361 183.935 6.11531 184.226C6.037 184.517 5.97171 184.811 5.91944 185.107C5.86694 185.403 5.82757 185.701 5.80132 186C5.77508 186.3 5.76196 186.601 5.76196 186.904C5.76196 187.206 5.77508 187.504 5.80132 187.799C5.82757 188.094 5.86694 188.384 5.91944 188.669C5.97172 188.955 6.03701 189.235 6.11531 189.51C6.19361 189.785 6.28459 190.055 6.38826 190.319C6.48924 190.574 6.60047 190.82 6.72192 191.059C6.84198 191.294 6.97383 191.524 7.11699 191.747C7.25791 191.965 7.41005 192.176 7.57279 192.379C7.73399 192.58 7.90573 192.773 8.08731 192.957C8.2659 193.137 8.45414 193.308 8.65122 193.468C8.84421 193.624 9.04583 193.77 9.25516 193.905C9.66827 194.17 10.1105 194.387 10.5732 194.551C11.0475 194.72 11.5404 194.832 12.0413 194.884C12.2926 194.91 12.5452 194.921 12.7978 194.917C13.0544 194.914 13.3106 194.896 13.5652 194.863C13.8221 194.831 14.077 194.784 14.3287 194.723C14.5811 194.662 14.8301 194.588 15.0744 194.5C15.3215 194.411 15.5638 194.309 15.8001 194.195C16.041 194.078 16.2757 193.95 16.5035 193.809C16.7253 193.671 16.9413 193.524 17.1515 193.366C17.3617 193.208 17.5654 193.039 17.7625 192.861C17.9596 192.682 18.1499 192.493 18.3334 192.295C18.5169 192.097 18.6933 191.889 18.8626 191.671C19.033 191.453 19.1934 191.229 19.3438 190.998C19.4941 190.768 19.6349 190.531 19.7662 190.288C19.8974 190.045 20.0189 189.797 20.1306 189.542C20.2422 189.288 20.344 189.029 20.4359 188.764C20.5311 188.49 20.6144 188.213 20.6858 187.934C20.7572 187.656 20.8168 187.375 20.8646 187.092C20.9122 186.809 20.9481 186.525 20.9721 186.239C20.9961 185.953 21.0081 185.666 21.0081 185.377C21.0079 185.089 20.9959 184.804 20.9721 184.523C20.9483 184.242 20.9125 183.964 20.8646 183.691C20.817 183.418 20.7574 183.149 20.6858 182.885C20.6142 182.62 20.5309 182.36 20.4359 182.105C20.3436 181.858 20.2418 181.619 20.1306 181.387C20.0178 181.156 19.8958 180.932 19.7645 180.715C19.5047 180.285 19.2026 179.882 18.8626 179.513C18.6958 179.331 18.5196 179.158 18.3347 178.994C18.1527 178.833 17.9621 178.683 17.7638 178.542C17.5674 178.404 17.3634 178.276 17.1529 178.159C16.9424 178.043 16.7257 177.939 16.5035 177.847C16.0449 177.656 15.5653 177.521 15.0748 177.442C14.8278 177.403 14.5788 177.378 14.329 177.368C14.0745 177.358 13.8196 177.362 13.5656 177.381" fill="#DFE8F2"/>
<path d="M13.5659 208.655C13.3084 208.674 13.0522 208.707 12.7984 208.755C12.5431 208.802 12.2905 208.864 12.042 208.94C11.7897 209.017 11.5417 209.107 11.2992 209.211C11.0511 209.317 10.8086 209.435 10.5728 209.567C10.3422 209.696 10.1167 209.836 9.89649 209.988C9.67626 210.14 9.46238 210.304 9.25483 210.478C9.04751 210.652 8.84631 210.838 8.65122 211.035C8.45613 211.232 8.26817 211.44 8.08732 211.659C7.90647 211.878 7.73507 212.104 7.57312 212.339C7.41118 212.573 7.25925 212.815 7.11733 213.063C6.97674 213.312 6.84527 213.568 6.72292 213.831C6.60058 214.093 6.48936 214.362 6.38925 214.637C6.28493 214.922 6.19361 215.21 6.11531 215.501C6.037 215.792 5.97171 216.086 5.91944 216.381C5.86694 216.677 5.82757 216.975 5.80132 217.275C5.77508 217.575 5.76196 217.876 5.76196 218.178C5.76196 218.481 5.77508 218.779 5.80132 219.074C5.82757 219.368 5.86694 219.658 5.91944 219.944C5.97172 220.229 6.03701 220.51 6.11531 220.785C6.19361 221.06 6.28459 221.33 6.38826 221.594C6.48924 221.848 6.60047 222.095 6.72192 222.333C6.84198 222.569 6.97383 222.799 7.11699 223.021C7.25791 223.24 7.41005 223.451 7.57279 223.653C7.73399 223.855 7.90573 224.048 8.08731 224.231C8.2659 224.412 8.45414 224.582 8.65122 224.742C8.84421 224.899 9.04584 225.045 9.25516 225.179C9.66827 225.444 10.1105 225.661 10.5732 225.826C11.0475 225.995 11.5404 226.107 12.0413 226.159C12.2926 226.185 12.5452 226.196 12.7978 226.192C13.0544 226.188 13.3106 226.17 13.5652 226.138C13.8221 226.105 14.077 226.058 14.3287 225.998C14.5811 225.937 14.8301 225.862 15.0744 225.774C15.3215 225.686 15.5638 225.584 15.8001 225.469C16.041 225.353 16.2757 225.224 16.5035 225.084C16.7253 224.946 16.9413 224.798 17.1515 224.64C17.3617 224.482 17.5654 224.314 17.7625 224.135C17.9596 223.956 18.1499 223.768 18.3334 223.57C18.5169 223.371 18.6933 223.163 18.8626 222.945C19.033 222.728 19.1934 222.504 19.3438 222.273C19.4941 222.042 19.6349 221.806 19.7662 221.563C19.8974 221.32 20.0189 221.071 20.1306 220.817C20.2422 220.563 20.344 220.303 20.4359 220.039C20.5311 219.764 20.6144 219.488 20.6858 219.209C20.7572 218.93 20.8168 218.65 20.8646 218.367C20.9122 218.084 20.9481 217.799 20.9721 217.513C20.9961 217.227 21.0081 216.94 21.0081 216.652C21.0079 216.364 20.9959 216.079 20.9721 215.798C20.9483 215.516 20.9125 215.239 20.8646 214.966C20.817 214.693 20.7574 214.424 20.6858 214.159C20.6142 213.894 20.5309 213.635 20.4359 213.38C20.3436 213.133 20.2418 212.894 20.1306 212.662C20.0178 212.431 19.8958 212.207 19.7645 211.989C19.5047 211.56 19.2026 211.157 18.8626 210.787C18.6958 210.605 18.5196 210.432 18.3347 210.269C18.1527 210.108 17.9621 209.957 17.7638 209.817C17.5674 209.678 17.3634 209.55 17.1529 209.434C16.9424 209.318 16.7257 209.213 16.5035 209.121C16.0449 208.931 15.5653 208.795 15.0748 208.717C14.8278 208.678 14.5788 208.653 14.329 208.643C14.0745 208.633 13.8196 208.637 13.5656 208.656" fill="#DFE8F2"/>
<path d="M13.5672 143.687C13.3111 143.681 13.0549 143.689 12.7998 143.712C12.5457 143.734 12.2931 143.772 12.0433 143.823C11.7921 143.876 11.5441 143.942 11.3006 144.023C11.0533 144.105 10.8107 144.2 10.5742 144.309C10.3426 144.415 10.1168 144.534 9.89781 144.664C9.67663 144.795 9.46246 144.938 9.25616 145.092C9.04653 145.248 8.84496 145.414 8.65221 145.591C8.45624 145.77 8.26794 145.96 8.08731 146.161C7.90646 146.363 7.73506 146.573 7.57311 146.792C7.41117 147.011 7.25923 147.237 7.11732 147.472C6.97606 147.71 6.84426 147.954 6.72191 148.204C6.59957 148.454 6.48835 148.712 6.38824 148.978C6.28458 149.252 6.1936 149.531 6.1153 149.815C6.03699 150.098 5.9717 150.385 5.91943 150.676C5.86693 150.968 5.82756 151.262 5.80131 151.558C5.77506 151.855 5.76194 152.154 5.76195 152.457C5.76195 152.759 5.77507 153.058 5.80131 153.355C5.82755 153.652 5.86692 153.946 5.91943 154.236C5.9717 154.527 6.03699 154.814 6.1153 155.096C6.1936 155.379 6.28458 155.658 6.38824 155.931C6.48923 156.196 6.60045 156.453 6.72191 156.703C6.84426 156.952 6.97639 157.194 7.1183 157.428C7.26021 157.663 7.41215 157.888 7.5741 158.106C7.73582 158.324 7.90722 158.533 8.08829 158.733C8.26937 158.932 8.45734 159.121 8.6522 159.298C8.84393 159.474 9.0445 159.64 9.25314 159.796C9.45947 159.948 9.67365 160.089 9.89479 160.219C10.1139 160.348 10.3396 160.465 10.5711 160.57C10.8078 160.677 11.0503 160.771 11.2976 160.851C11.7841 161.008 12.2871 161.108 12.7967 161.15C13.307 161.193 13.8205 161.177 14.3273 161.104C14.5786 161.068 14.8275 161.017 15.0731 160.953C15.3192 160.888 15.5615 160.81 15.7988 160.718C16.0389 160.625 16.2737 160.519 16.5022 160.401C16.725 160.286 16.9417 160.159 17.1515 160.021C17.3625 159.883 17.5664 159.734 17.7625 159.575C17.9595 159.416 18.1498 159.245 18.3334 159.065C18.5169 158.884 18.6933 158.693 18.8626 158.492C19.033 158.291 19.1934 158.082 19.3437 157.866C19.4941 157.65 19.6349 157.427 19.7662 157.196C19.8979 156.966 20.0193 156.729 20.1305 156.486C20.2418 156.243 20.3435 155.994 20.4359 155.738C20.5311 155.474 20.6144 155.205 20.6858 154.933C20.7572 154.661 20.8168 154.386 20.8646 154.108C20.9122 153.829 20.948 153.547 20.9721 153.264C20.9961 152.98 21.0081 152.694 21.0081 152.406C21.0079 152.118 20.9959 151.832 20.9721 151.548C20.9483 151.264 20.9124 150.984 20.8646 150.706C20.817 150.428 20.7574 150.153 20.6858 149.881C20.6141 149.61 20.5308 149.342 20.4359 149.078C20.3435 148.822 20.2418 148.573 20.1305 148.331C20.0193 148.088 19.8973 147.852 19.7645 147.622C19.6333 147.394 19.4924 147.172 19.3421 146.956C19.1917 146.741 19.0318 146.533 18.8626 146.333C18.6944 146.134 18.5185 145.944 18.3347 145.765C18.151 145.585 17.9606 145.416 17.7638 145.258C17.5679 145.1 17.3641 144.952 17.1532 144.815C16.9433 144.679 16.7266 144.553 16.5038 144.439C16.2753 144.322 16.0405 144.218 15.8005 144.127C15.5631 144.036 15.3208 143.959 15.0747 143.896C14.8291 143.833 14.5801 143.785 14.329 143.75C14.0758 143.715 13.821 143.695 13.5655 143.689L13.5672 143.687ZM13.5655 142.856C14.6864 142.887 15.7858 143.171 16.7808 143.686C17.7696 144.202 18.6461 144.908 19.3594 145.763C20.1051 146.655 20.6858 147.672 21.0745 148.766C21.9069 151.121 21.9069 153.69 21.0745 156.045C20.6854 157.143 20.1048 158.163 19.3594 159.059C18.646 159.919 17.7696 160.63 16.7805 161.151C15.7867 161.673 14.6876 161.964 13.5652 162.002C12.4359 162.039 11.3133 161.816 10.2845 161.35C9.24596 160.876 8.31685 160.192 7.55541 159.343C6.74684 158.444 6.11401 157.402 5.68952 156.271C4.77016 153.809 4.77016 151.099 5.68952 148.636C6.11442 147.502 6.74714 146.456 7.55541 145.552C8.31661 144.698 9.24549 144.009 10.2845 143.528C11.3125 143.056 12.4357 142.825 13.5672 142.855L13.5655 142.856Z" fill="#0B4DAF"/>
<path d="M13.5666 154.782L10.9382 149.322L11.5622 148.917L13.7271 153.403L22.817 142.749L23.3672 143.334L13.5666 154.782Z" fill="#0B4DAF"/>
<path d="M109.222 262.386L102.716 262.36L104.814 279.313L109.222 279.335V262.386Z" fill="#FFDBAC"/>
<path d="M110.346 283.601L96.1394 283.526V283.347C96.1392 282.983 96.1747 282.62 96.2455 282.264C96.3852 281.56 96.6636 280.891 97.0647 280.296C97.472 279.692 97.994 279.174 98.6012 278.771C99.2003 278.374 99.8725 278.099 100.579 277.963C100.937 277.894 101.301 277.861 101.666 277.863V277.863L110.346 277.906V283.601Z" fill="#0B4DAF"/>
<path d="M88.3888 262.305L81.9009 262.28L83.9923 279.209L88.3888 279.231V262.305Z" fill="#FFDBAC"/>
<path d="M89.5101 283.49L75.3403 283.416V283.237C75.3402 282.874 75.3758 282.512 75.4464 282.156C75.5857 281.453 75.8634 280.785 76.2633 280.191C76.6693 279.588 77.1901 279.07 77.7962 278.667C78.3937 278.271 79.0642 277.997 79.7688 277.861C80.126 277.793 80.4892 277.759 80.8529 277.761V277.761L89.5101 277.804V283.49Z" fill="#0B4DAF"/>
<path d="M88.1132 193.016L77.2031 233.614L81.1965 272.53L90.0388 272.773L88.1135 237.634L99.1444 220.098L101.537 273.012L109.558 272.446L114.02 226.951C115.535 223.399 116.646 219.688 117.333 215.889C117.872 212.907 118.135 209.881 118.117 206.851C118.108 204.811 117.95 202.774 117.646 200.756C117.538 200.005 117.39 199.259 117.205 198.522L113.952 195.234L88.1132 193.016Z" fill="#1A1B23"/>
<path d="M102.568 199.806C100.733 199.806 99.0119 199.747 97.4508 199.631C95.8562 199.522 94.2699 199.314 92.7013 199.008C91.3657 198.759 90.0651 198.351 88.8275 197.792C87.8312 197.362 86.9649 196.681 86.3149 195.814L86.2405 195.706L89.2226 176.355L92.4383 154.597C92.65 153.157 93.3852 151.845 94.5041 150.911C95.623 149.976 97.0474 149.485 98.5062 149.53L108.577 149.837C109.333 149.86 110.076 150.035 110.762 150.349C111.449 150.664 112.065 151.113 112.574 151.669C113.083 152.226 113.476 152.879 113.727 153.589C113.979 154.3 114.085 155.053 114.039 155.805L112.717 177.444L117.593 198.788L117.248 198.836C117.109 198.855 116.574 198.925 115.735 199.019C114.64 199.142 113.521 199.253 112.41 199.348C110.838 199.483 109.3 199.59 107.839 199.664C105.985 199.758 104.209 199.804 102.568 199.806Z" fill="#0B4DAF"/>
<path d="M96.9795 145.685C96.9768 145.685 96.9742 145.685 96.9715 145.685C96.7602 145.684 96.551 145.643 96.3558 145.562C96.1607 145.481 95.9834 145.363 95.8341 145.214C95.6848 145.065 95.5664 144.888 95.4856 144.693C95.4049 144.499 95.3634 144.29 95.3635 144.079V135.126C95.362 133.522 95.6839 131.934 96.3101 130.456C97.5365 127.573 99.8314 125.273 102.717 124.035C104.541 123.255 106.532 122.938 108.51 123.113C110.488 123.287 112.391 123.949 114.05 125.037C115.708 126.125 117.07 127.607 118.014 129.349C118.957 131.091 119.453 133.039 119.456 135.019V143.986C119.456 144.202 119.413 144.415 119.329 144.614C119.163 145.002 118.854 145.311 118.466 145.476C118.266 145.561 118.052 145.605 117.835 145.606L96.9782 145.685H96.9795Z" fill="#1A1B23"/>
<path d="M112.849 132.055C113.689 133.586 114.056 135.33 113.902 137.067C113.749 138.805 113.083 140.458 111.988 141.819C110.893 143.179 109.418 144.185 107.749 144.71C106.081 145.235 104.294 145.255 102.614 144.768C101.502 144.45 100.464 143.914 99.5608 143.192C98.6576 142.471 97.9069 141.578 97.3523 140.565C96.5141 139.036 96.1489 137.293 96.3026 135.557C96.4563 133.821 97.1221 132.169 98.216 130.81C99.3099 129.45 100.783 128.444 102.449 127.919C104.116 127.393 105.901 127.371 107.58 127.855C108.693 128.173 109.732 128.708 110.637 129.429C111.541 130.15 112.293 131.043 112.849 132.056V132.055Z" fill="#FFDBAC"/>
<path d="M92.5159 135.855C92.5147 134.586 92.7693 133.33 93.2646 132.162C94.2343 129.882 96.0491 128.063 98.3308 127.084C99.5014 126.584 100.761 126.324 102.035 126.319L103.832 126.31C103.852 126.31 103.872 126.31 103.892 126.31C105.137 126.311 106.369 126.556 107.518 127.032C108.668 127.507 109.712 128.204 110.591 129.082C111.471 129.96 112.168 131.002 112.644 132.148C113.119 133.295 113.363 134.524 113.363 135.765V135.944L109.561 135.959L108.265 132.348L108.005 135.966L106.042 135.975L105.388 134.153L105.257 135.977L92.5175 136.034L92.5159 135.855Z" fill="#1A1B23"/>
<path d="M77.21 154.689C76.625 154.832 76.0779 155.099 75.6064 155.473C75.2379 155.764 74.9228 156.116 74.6752 156.514C74.1867 157.302 73.9715 158.228 74.0627 159.15C74.1087 159.616 74.2354 160.07 74.4371 160.493C74.6858 161.019 75.0436 161.487 75.4871 161.866C75.9305 162.244 76.4494 162.525 77.0095 162.688C77.5696 162.852 78.1582 162.896 78.7364 162.816C79.3146 162.736 79.8693 162.535 80.3638 162.226C80.4003 162.202 80.4364 162.179 80.4721 162.154C80.5078 162.13 80.5429 162.106 80.5774 162.08C80.6121 162.055 80.6462 162.03 80.6796 162.004C80.7131 161.978 80.7464 161.951 80.7794 161.925L101.758 169.37C102.404 169.599 103.106 169.612 103.76 169.409C104.414 169.205 104.984 168.795 105.384 168.24L110.358 161.374L104.345 157.336L101.189 160.911L81.9899 157.103C81.969 157.053 81.9473 157.004 81.9249 156.954C81.9024 156.905 81.879 156.856 81.8546 156.808C81.8298 156.759 81.8042 156.711 81.7779 156.663C81.7516 156.615 81.7238 156.567 81.6945 156.52C81.2364 155.782 80.5558 155.207 79.7503 154.879C78.9448 154.55 78.0556 154.484 77.21 154.689Z" fill="#FFDBAC"/>
<path d="M101.528 158.657C102.155 157.876 103.033 156.862 103.924 155.856C104.816 154.85 105.72 153.854 106.403 153.108C107.085 152.362 107.544 151.868 107.544 151.868C108.174 150.919 109.114 150.216 110.205 149.879C111.296 149.542 112.47 149.592 113.528 150.02C114.586 150.449 115.462 151.229 116.009 152.229C116.555 153.228 116.738 154.386 116.525 155.505C116.404 156.149 116.153 156.761 115.788 157.306C115.788 157.306 115.103 158.199 114.07 159.532C113.037 160.865 111.655 162.64 110.261 164.404C108.866 166.168 107.458 167.923 106.373 169.218C105.287 170.514 104.523 171.35 104.416 171.279L100.629 160.056C100.522 159.984 100.9 159.438 101.528 158.657Z" fill="#0B4DAF"/>
<path d="M103.775 145.402C103.716 145.692 103.739 145.992 103.842 146.269C103.894 146.411 103.965 146.545 104.054 146.667C104.13 146.771 104.219 146.865 104.317 146.949C104.609 147.194 104.979 147.328 105.361 147.327C105.385 147.327 105.408 147.326 105.432 147.325C105.456 147.324 105.48 147.322 105.504 147.32C105.528 147.318 105.552 147.315 105.575 147.312C105.599 147.309 105.623 147.305 105.647 147.301L106.996 147.056L108.855 143.097V146.723L114.99 145.622V130.233L104.705 130.282L104.959 130.576C105.803 131.564 106.358 132.765 106.561 134.047C106.761 135.345 106.736 136.668 106.487 137.958C106.245 139.263 105.879 140.542 105.392 141.778C104.966 142.872 104.478 143.941 103.929 144.979C103.858 145.112 103.806 145.255 103.775 145.402V145.402Z" fill="#1A1B23"/>
<path d="M12.3212 283.5H134.679C134.764 283.5 134.846 283.474 134.906 283.427C134.966 283.38 135 283.316 135 283.25C135 283.184 134.966 283.12 134.906 283.073C134.846 283.026 134.764 283 134.679 283H12.3212C12.236 283 12.1543 283.026 12.0941 283.073C12.0338 283.12 12 283.184 12 283.25C12 283.316 12.0338 283.38 12.0941 283.427C12.1543 283.474 12.236 283.5 12.3212 283.5Z" fill="#08387F"/>
</g>
</g>
<defs>
<linearGradient id="paint0_linear_36_2029" x1="341" y1="84" x2="366.821" y2="341.811" gradientUnits="userSpaceOnUse">
<stop stop-color="#F0F5FF"/>
<stop offset="1" stop-color="#FFFBE0"/>
</linearGradient>
<linearGradient id="paint1_linear_36_2029" x1="130" y1="187.5" x2="127.714" y2="2.49736" gradientUnits="userSpaceOnUse">
<stop stop-color="#F0F5FF"/>
<stop offset="1" stop-color="#FFFBE0"/>
</linearGradient>
<linearGradient id="paint2_linear_36_2029" x1="127.28" y1="1.77825" x2="114.369" y2="301.765" gradientUnits="userSpaceOnUse">
<stop stop-color="#08387F"/>
<stop offset="1" stop-color="#0B4DAF"/>
</linearGradient>
<clipPath id="clip0_36_2029">
<rect width="387" height="346" fill="white"/>
</clipPath>
<clipPath id="clip1_36_2029">
<rect width="246" height="160" fill="white" transform="translate(133 98)"/>
</clipPath>
<clipPath id="clip2_36_2029">
<rect width="155" height="161" fill="white" transform="translate(5 123.066)"/>
</clipPath>
</defs>
</svg>
