<svg width="796" height="798" viewBox="0 0 796 798" fill="none" xmlns="http://www.w3.org/2000/svg">
<g clip-path="url(#clip0_208_13)">
<path fill-rule="evenodd" clip-rule="evenodd" d="M480.404 795.547C329.474 778.038 256.821 618.839 167.548 495.932C86.2012 383.936 -17.1344 274.482 2.40997 137.464C23.5325 -10.6179 130.562 -134.978 266.468 -197.561C399.692 -258.908 556.888 -249.33 684.185 -176.484C801.703 -109.235 845.206 24.6398 882.275 154.833C923.226 298.663 979.291 454.187 899.823 580.884C812.041 720.839 644.549 814.59 480.404 795.547Z" fill="url(#paint0_linear_208_13)"/>
<path fill-rule="evenodd" clip-rule="evenodd" d="M511.404 756.547C360.474 739.038 287.821 579.839 198.548 456.932C117.201 344.936 13.8656 235.482 33.41 98.4643C54.5325 -49.6179 161.562 -173.978 297.468 -236.561C430.692 -297.908 587.888 -288.33 715.185 -215.484C832.703 -148.235 876.206 -14.3602 913.275 115.833C954.226 259.663 1010.29 415.187 930.823 541.884C843.041 681.839 675.549 775.59 511.404 756.547Z" fill="url(#paint1_linear_208_13)"/>
<path fill-rule="evenodd" clip-rule="evenodd" d="M163.671 -247.268C170.701 -399.047 324.493 -482.536 440.932 -580.095C547.034 -668.993 649.079 -779.651 787.121 -769.629C936.309 -758.798 1067.77 -660.625 1139.61 -529.373C1210.02 -400.711 1211.34 -243.229 1147.47 -111.198C1088.51 10.6891 957.962 63.3461 830.644 109.33C689.991 160.13 538.716 226.817 406.827 156.302C261.136 78.4084 156.026 -82.1981 163.671 -247.268Z" fill="#F0F5FF"/>
<mask id="mask0_208_13" style="mask-type:alpha" maskUnits="userSpaceOnUse" x="31" y="-277" width="940" height="1036">
<path fill-rule="evenodd" clip-rule="evenodd" d="M511.404 756.547C360.474 739.038 287.821 579.839 198.548 456.932C117.201 344.936 13.8656 235.482 33.41 98.4643C54.5325 -49.6179 161.562 -173.978 297.468 -236.561C430.692 -297.908 587.888 -288.33 715.185 -215.484C832.704 -148.235 876.206 -14.3602 913.275 115.833C954.226 259.663 1010.29 415.187 930.823 541.884C843.041 681.839 675.549 775.59 511.404 756.547Z" fill="url(#paint2_linear_208_13)"/>
</mask>
<g mask="url(#mask0_208_13)">
<path d="M292 599H798V766H292V599Z" fill="#DFE8F2"/>
<path d="M511 545H798V623H511V545Z" fill="#DFE8F2"/>
</g>
<g clip-path="url(#clip1_208_13)">
<path d="M689.21 325.468C688.906 325.775 688.626 326.105 688.373 326.456L649.639 325.088L645.209 316.78L631.797 321.827L638.21 337.3C638.728 338.549 639.637 339.597 640.802 340.286C641.966 340.975 643.322 341.268 644.667 341.12L688.498 336.308C689.517 337.627 690.913 338.605 692.501 339.111C694.089 339.618 695.793 339.628 697.387 339.142C698.981 338.656 700.39 337.697 701.425 336.391C702.46 335.085 703.073 333.494 703.182 331.831C703.292 330.168 702.892 328.512 702.036 327.081C701.181 325.651 699.91 324.515 698.394 323.825C696.877 323.135 695.186 322.922 693.545 323.217C691.905 323.511 690.393 324.298 689.21 325.472V325.468Z" fill="#FFDBAC"/>
<path d="M615.034 285.097C627.525 285.097 637.651 274.972 637.651 262.481C637.651 249.991 627.525 239.865 615.034 239.865C602.543 239.865 592.417 249.991 592.417 262.481C592.417 274.972 602.543 285.097 615.034 285.097Z" fill="#1A1B23"/>
<path d="M597.38 250.287C601.035 246.633 601.776 241.448 599.034 238.707C596.293 235.966 591.108 236.707 587.454 240.361C583.799 244.016 583.058 249.201 585.799 251.942C588.54 254.683 593.725 253.942 597.38 250.287Z" fill="#1A1B23"/>
<path d="M638.607 243.105C640.129 239.541 637.511 235.005 632.757 232.975C628.004 230.944 622.917 232.188 621.394 235.753C619.871 239.318 622.49 243.853 627.243 245.884C631.996 247.914 637.084 246.67 638.607 243.105Z" fill="#1A1B23"/>
<path d="M647.94 323.547L630.584 331.307C630.09 331.528 629.555 331.64 629.014 331.635C628.473 331.63 627.939 331.509 627.449 331.279C626.96 331.05 626.525 330.717 626.175 330.304C625.826 329.892 625.569 329.409 625.423 328.888L620.305 310.638C619.192 308.105 619.128 305.235 620.128 302.656C621.127 300.077 623.108 297.999 625.637 296.877C628.165 295.755 631.035 295.682 633.618 296.671C636.201 297.661 638.286 299.635 639.417 302.159L649.578 318.087C649.869 318.543 650.058 319.057 650.132 319.592C650.207 320.128 650.165 320.674 650.009 321.192C649.854 321.71 649.589 322.188 649.232 322.595C648.874 323.001 648.434 323.326 647.94 323.547H647.94Z" fill="#537BB8"/>
<path d="M567.782 399.905C568.978 399.627 570.098 399.091 571.064 398.334C572.03 397.576 572.818 396.616 573.372 395.522C573.927 394.427 574.235 393.224 574.274 391.997C574.314 390.77 574.084 389.55 573.6 388.422L604.55 318.502L586.845 314.043L561.99 384.174C560.148 385.111 558.715 386.692 557.961 388.616C557.207 390.539 557.185 392.673 557.899 394.612C558.613 396.551 560.013 398.161 561.835 399.136C563.656 400.112 565.773 400.385 567.782 399.905Z" fill="#FFDBAC"/>
<path d="M559.346 526.641L568.349 529.919L585.277 496.755L571.989 491.917L559.346 526.641Z" fill="#FFDBAC"/>
<path d="M582.667 544.6L554.372 534.298L558.353 523.366L575.716 529.688C578.615 530.744 580.976 532.908 582.28 535.704C583.584 538.501 583.723 541.701 582.667 544.6L582.667 544.6Z" fill="#0B4DAF"/>
<path d="M580.641 507.556C580.088 507.556 579.543 507.434 579.044 507.198L568.697 502.297C567.849 501.899 567.18 501.198 566.823 500.331C566.466 499.465 566.446 498.496 566.768 497.616L595.968 416.759C596.21 416.089 596.637 415.502 597.199 415.065C597.761 414.628 598.436 414.36 599.144 414.291C599.853 414.222 600.567 414.355 601.203 414.676C601.838 414.996 602.37 415.49 602.736 416.101L618.181 441.84C618.525 442.414 618.71 443.069 618.717 443.737C618.724 444.406 618.553 445.064 618.222 445.645L583.923 505.663C583.591 506.24 583.112 506.718 582.536 507.05C581.96 507.383 581.306 507.557 580.641 507.556Z" fill="#1A1B23"/>
<path d="M615.751 287.074C626.352 287.074 634.946 278.481 634.946 267.88C634.946 257.28 626.352 248.686 615.751 248.686C605.15 248.686 596.556 257.28 596.556 267.88C596.556 278.481 605.15 287.074 615.751 287.074Z" fill="#FFDBAC"/>
<path d="M642.906 355.147L608.92 345.801L590.844 309.651C589.975 307.914 589.565 305.984 589.653 304.045C589.74 302.105 590.322 300.22 591.342 298.568C592.363 296.917 593.789 295.553 595.485 294.608C597.181 293.662 599.091 293.166 601.033 293.166H628.073C630.879 293.164 633.588 294.2 635.677 296.074C642.93 302.572 658.169 321.304 643.053 354.82L642.906 355.147Z" fill="#0B4DAF"/>
<path d="M600.36 331.006L583.141 322.947C582.651 322.717 582.216 322.385 581.866 321.973C581.516 321.56 581.259 321.077 581.113 320.556C580.967 320.036 580.934 319.489 581.018 318.955C581.101 318.421 581.299 317.91 581.598 317.459L592.063 301.656C593.251 299.158 595.382 297.232 597.987 296.302C600.593 295.371 603.461 295.512 605.963 296.692C608.466 297.872 610.398 299.996 611.337 302.598C612.276 305.201 612.146 308.069 610.974 310.575L605.563 328.676C605.408 329.195 605.143 329.673 604.786 330.08C604.429 330.486 603.989 330.811 603.495 331.033C603.001 331.254 602.466 331.366 601.925 331.361C601.384 331.357 600.85 331.236 600.36 331.006H600.36Z" fill="#0B4DAF"/>
<path d="M621.193 535.703H630.774L635.333 498.749L621.191 498.75L621.193 535.703Z" fill="#FFDBAC"/>
<path d="M649.253 544.599L619.141 544.6L619.14 532.966L637.618 532.965C640.704 532.965 643.663 534.191 645.845 536.373C648.027 538.554 649.253 541.513 649.253 544.599Z" fill="#0B4DAF"/>
<path d="M624.811 521.621C623.95 521.623 623.114 521.327 622.445 520.784C621.776 520.241 621.315 519.484 621.14 518.641C618.386 505.665 604.082 439.203 592.918 404.968C581.56 370.138 600.904 354.273 604.897 351.446C605.323 351.146 605.66 350.738 605.876 350.264L608.778 343.883C609.078 343.224 609.562 342.666 610.171 342.274C610.781 341.882 611.49 341.674 612.214 341.674H612.237C633.986 341.804 641.297 348.659 643.431 351.601C643.746 352.039 643.962 352.54 644.063 353.07C644.165 353.6 644.15 354.146 644.02 354.669L630.259 411.439C630.174 411.791 630.155 412.156 630.202 412.515L643.893 515.591C643.959 516.087 643.925 516.59 643.795 517.072C643.664 517.555 643.438 518.006 643.131 518.401C642.824 518.795 642.441 519.124 642.005 519.369C641.57 519.614 641.09 519.769 640.593 519.827L625.253 521.596C625.106 521.613 624.959 521.621 624.811 521.621Z" fill="#1A1B23"/>
<path d="M595.582 255.807C599.968 258.83 605.174 260.439 610.501 260.418C608.601 261.735 606.438 262.625 604.161 263.026C611.243 264.546 618.564 264.587 625.663 263.147C627.241 262.894 628.764 262.371 630.164 261.601C630.862 261.212 631.47 260.679 631.949 260.039C632.428 259.399 632.766 258.665 632.943 257.886C633.415 255.191 631.315 252.742 629.132 251.092C625.791 248.604 621.938 246.89 617.853 246.074C613.768 245.258 609.552 245.36 605.511 246.372C602.873 247.054 600.229 248.207 598.516 250.326C596.802 252.444 596.294 255.711 597.927 257.893L595.582 255.807Z" fill="#1A1B23"/>
<path d="M820.889 472.003V545.252L801.887 544.703H704.673V484.946L733.039 472.003H820.889Z" fill="#08387F"/>
<path opacity="0.1" d="M820.889 472.003V472.231L814.067 476.796L801.887 484.946H704.673L733.039 472.003H820.889Z" fill="#F0F5FF"/>
<path d="M795.277 479.85H736.068L740.475 477.372H797.205L795.277 479.85Z" fill="white"/>
<path d="M862.248 545H505.752C505.553 545 505.361 544.947 505.22 544.854C505.079 544.76 505 544.633 505 544.5C505 544.367 505.079 544.24 505.22 544.146C505.361 544.053 505.553 544 505.752 544H862.248C862.447 544 862.639 544.053 862.78 544.146C862.921 544.24 863 544.367 863 544.5C863 544.633 862.921 544.76 862.78 544.854C862.639 544.947 862.447 545 862.248 545Z" fill="#08387F"/>
<path d="M763.794 338.774H699.71C697.845 338.772 696.058 338.03 694.739 336.711C693.42 335.393 692.679 333.605 692.677 331.741V262.189C692.679 260.325 693.42 258.537 694.739 257.218C696.058 255.9 697.845 255.158 699.71 255.156H763.794C765.659 255.158 767.447 255.9 768.765 257.218C770.084 258.537 770.826 260.325 770.828 262.189V331.741C770.826 333.605 770.084 335.393 768.765 336.711C767.447 338.03 765.659 338.772 763.794 338.774V338.774ZM699.71 256.719C698.26 256.721 696.869 257.298 695.844 258.323C694.818 259.349 694.241 260.739 694.24 262.189V331.741C694.241 333.191 694.818 334.581 695.844 335.607C696.869 336.632 698.26 337.209 699.71 337.211H763.794C765.245 337.209 766.635 336.632 767.661 335.607C768.686 334.581 769.263 333.191 769.265 331.741V262.189C769.263 260.739 768.686 259.349 767.661 258.323C766.635 257.298 765.245 256.721 763.794 256.719H699.71Z" fill="#08387F"/>
<path d="M712.617 284.071H706.365C705.433 284.07 704.539 283.699 703.879 283.039C703.22 282.38 702.849 281.486 702.848 280.554V274.302C702.849 273.37 703.22 272.476 703.879 271.817C704.539 271.157 705.433 270.787 706.365 270.786H712.617C713.549 270.787 714.443 271.157 715.103 271.817C715.762 272.476 716.133 273.37 716.134 274.302V280.554C716.133 281.486 715.762 282.38 715.103 283.039C714.443 283.699 713.549 284.07 712.617 284.071Z" fill="#08387F"/>
<path d="M712.617 303.607H706.365C705.433 303.606 704.539 303.236 703.879 302.576C703.22 301.917 702.849 301.023 702.848 300.091V293.839C702.849 292.907 703.22 292.013 703.879 291.354C704.539 290.694 705.433 290.323 706.365 290.322H712.617C713.549 290.323 714.443 290.694 715.103 291.354C715.762 292.013 716.133 292.907 716.134 293.839V300.091C716.133 301.023 715.762 301.917 715.103 302.576C714.443 303.236 713.549 303.606 712.617 303.607V303.607Z" fill="#DFE8F2"/>
<path d="M758.312 280.27H729.123C728.501 280.27 727.905 280.022 727.466 279.583C727.026 279.143 726.779 278.547 726.778 277.926V276.93C726.779 276.309 727.026 275.713 727.466 275.273C727.905 274.834 728.501 274.587 729.123 274.586H758.312C758.933 274.587 759.529 274.834 759.969 275.273C760.408 275.713 760.656 276.309 760.656 276.93V277.926C760.656 278.547 760.408 279.143 759.969 279.583C759.529 280.022 758.933 280.27 758.312 280.27Z" fill="#08387F"/>
<path d="M758.312 299.807H729.123C728.501 299.806 727.905 299.559 727.466 299.12C727.026 298.68 726.779 298.084 726.778 297.463V296.467C726.779 295.846 727.026 295.25 727.466 294.81C727.905 294.371 728.501 294.123 729.123 294.123H758.312C758.933 294.123 759.529 294.371 759.969 294.81C760.408 295.25 760.656 295.846 760.656 296.467V297.463C760.656 298.084 760.408 298.68 759.969 299.12C759.529 299.559 758.933 299.806 758.312 299.807V299.807Z" fill="#DFE8F2"/>
<path d="M712.617 323.144H706.365C705.433 323.143 704.539 322.772 703.879 322.113C703.22 321.454 702.849 320.56 702.848 319.628V313.376C702.849 312.444 703.22 311.55 703.879 310.89C704.539 310.231 705.433 309.86 706.365 309.859H712.617C713.549 309.86 714.443 310.231 715.103 310.89C715.762 311.55 716.133 312.444 716.134 313.376V319.628C716.133 320.56 715.762 321.454 715.103 322.113C714.443 322.772 713.549 323.143 712.617 323.144V323.144Z" fill="#DFE8F2"/>
<path d="M758.312 319.344H729.123C728.501 319.343 727.905 319.096 727.466 318.657C727.026 318.217 726.779 317.621 726.778 317V316.004C726.779 315.382 727.026 314.786 727.466 314.347C727.905 313.907 728.501 313.66 729.123 313.66H758.312C758.933 313.66 759.529 313.907 759.969 314.347C760.408 314.786 760.656 315.382 760.656 316.004V317C760.656 317.621 760.408 318.217 759.969 318.657C759.529 319.096 758.933 319.343 758.312 319.344Z" fill="#DFE8F2"/>
</g>
<g clip-path="url(#clip2_208_13)">
<path d="M546.652 552.915L532.635 565.828L543.774 547.123C534.998 531.197 520.645 517.433 520.645 517.433C520.645 517.433 490.867 545.983 490.867 568.426C490.867 590.868 504.199 598.705 520.645 598.705C537.091 598.705 550.423 590.868 550.423 568.426C550.423 563.431 548.945 558.133 546.652 552.915Z" fill="#08387F"/>
<path d="M529.031 566.527V567.633C528.965 580.492 526.798 590.525 522.546 597.589C522.486 597.693 522.42 597.792 522.36 597.896L521.884 597.606L521.429 597.321C526.147 589.692 527.816 578.909 527.876 567.693C527.881 567.332 527.887 566.965 527.881 566.598C527.865 561.85 527.575 557.047 527.11 552.382C527.077 552.02 527.039 551.653 527 551.286C526.355 545.131 525.424 539.249 524.472 534.14C524.406 533.778 524.335 533.417 524.264 533.061C522.617 524.419 520.937 518.159 520.554 516.774C520.51 516.604 520.483 516.511 520.477 516.489L520.997 516.341L521.003 516.336L521.528 516.188C521.533 516.21 521.626 516.522 521.78 517.103C522.365 519.271 523.887 525.158 525.381 532.924C525.446 533.274 525.517 533.636 525.583 533.997C526.36 538.143 527.121 542.776 527.723 547.639C527.876 548.86 528.013 550.065 528.133 551.253C528.177 551.62 528.215 551.987 528.248 552.349C528.751 557.392 529.012 562.119 529.031 566.527Z" fill="#1F4B8C"/>
<path d="M525.38 532.924C525.014 532.973 524.642 533.022 524.264 533.061C523.239 533.166 522.209 533.219 521.178 533.219C516.785 533.225 512.446 532.245 508.482 530.35C508.252 530.64 508.022 530.93 507.787 531.226C511.957 533.263 516.537 534.32 521.178 534.315C522.278 534.314 523.378 534.256 524.472 534.139C524.844 534.101 525.216 534.052 525.583 533.997C528.609 533.563 531.552 532.671 534.311 531.352C534.076 531.051 533.846 530.755 533.622 530.465C531.011 531.686 528.234 532.515 525.38 532.924Z" fill="#1F4B8C"/>
<path d="M528.133 551.253C527.756 551.275 527.378 551.286 527.001 551.286C526.886 551.292 526.765 551.292 526.65 551.292C521.89 551.292 517.2 550.14 512.981 547.934C508.762 545.729 505.138 542.535 502.419 538.625C502.2 538.948 501.981 539.271 501.768 539.6C504.602 543.556 508.337 546.779 512.665 549.003C516.992 551.227 521.786 552.387 526.65 552.387C526.804 552.387 526.957 552.387 527.11 552.381C527.493 552.376 527.871 552.365 528.248 552.349C534.091 552.049 539.724 550.072 544.474 546.653C544.299 546.33 544.124 546.007 543.943 545.684C539.327 549.04 533.832 550.976 528.133 551.253Z" fill="#1F4B8C"/>
<path d="M529.031 566.527C528.648 566.56 528.264 566.582 527.881 566.598C527.471 566.615 527.061 566.626 526.65 566.626C520.254 566.618 514.032 564.538 508.916 560.695C503.8 556.853 500.065 551.456 498.271 545.312C498.024 545.755 497.778 546.193 497.543 546.637C499.564 552.767 503.465 558.103 508.69 561.888C513.916 565.673 520.2 567.714 526.65 567.721C527.061 567.721 527.471 567.715 527.876 567.694C528.265 567.683 528.648 567.661 529.031 567.633C536.768 567.028 543.986 563.502 549.224 557.77C549.109 557.365 548.977 556.965 548.846 556.56C543.787 562.335 536.68 565.91 529.031 566.527Z" fill="#1F4B8C"/>
<path d="M496.247 349.345L343.794 329.894C343.383 329.842 342.97 329.815 342.556 329.814C342.147 329.813 341.74 329.839 341.335 329.891C340.931 329.943 340.531 330.021 340.137 330.126C339.738 330.232 339.347 330.364 338.966 330.521C338.592 330.675 338.228 330.851 337.875 331.049C337.518 331.248 337.173 331.468 336.842 331.708C336.503 331.954 336.178 332.219 335.869 332.502C335.551 332.793 335.248 333.101 334.962 333.425C334.668 333.758 334.392 334.106 334.134 334.468C333.874 334.834 333.63 335.215 333.401 335.61C333.173 336.007 332.961 336.42 332.766 336.848C332.57 337.277 332.392 337.72 332.231 338.177C332.064 338.65 331.917 339.134 331.792 339.628C331.666 340.122 331.561 340.624 331.477 341.135C331.394 341.646 331.331 342.165 331.287 342.692C331.243 343.22 331.221 343.754 331.221 344.294C331.223 344.833 331.245 345.371 331.287 345.907C331.329 346.444 331.393 346.975 331.477 347.503C331.562 348.032 331.668 348.557 331.793 349.076C331.919 349.595 332.065 350.108 332.232 350.615C332.393 351.105 332.571 351.584 332.767 352.051C332.962 352.519 333.174 352.975 333.402 353.417C333.631 353.86 333.875 354.29 334.136 354.707C334.396 355.126 334.671 355.529 334.963 355.916C335.255 356.303 335.557 356.672 335.871 357.024C336.184 357.373 336.508 357.703 336.843 358.013C337.178 358.323 337.522 358.612 337.877 358.881C338.227 359.147 338.591 359.395 338.967 359.624C339.345 359.856 339.736 360.065 340.138 360.253C340.528 360.434 340.928 360.593 341.336 360.728C341.736 360.86 342.144 360.968 342.557 361.05C342.966 361.132 343.379 361.188 343.795 361.219L496.249 372.378C496.692 372.411 497.138 372.366 497.566 372.247C497.784 372.186 497.997 372.107 498.202 372.012C498.416 371.912 498.622 371.796 498.819 371.666C499.019 371.533 499.209 371.388 499.39 371.231C499.579 371.066 499.758 370.889 499.927 370.703C500.105 370.507 500.273 370.301 500.43 370.086C500.592 369.866 500.747 369.631 500.897 369.381C501.046 369.131 501.187 368.871 501.32 368.6C501.453 368.329 501.578 368.047 501.694 367.755C501.81 367.463 501.918 367.161 502.017 366.849C502.115 366.537 502.205 366.216 502.287 365.885C502.372 365.543 502.446 365.195 502.508 364.841C502.57 364.487 502.623 364.127 502.667 363.762C502.709 363.398 502.741 363.028 502.762 362.654C502.783 362.279 502.794 361.901 502.794 361.518C502.793 361.135 502.782 360.755 502.762 360.376C502.742 359.997 502.711 359.621 502.667 359.248C502.624 358.875 502.571 358.505 502.508 358.138C502.445 357.771 502.371 357.408 502.287 357.049C502.205 356.702 502.115 356.362 502.017 356.031C501.919 355.704 501.811 355.382 501.694 355.065C501.577 354.747 501.452 354.44 501.32 354.142C501.188 353.844 501.046 353.555 500.897 353.276C500.747 352.996 500.591 352.729 500.43 352.476C500.268 352.224 500.101 351.984 499.927 351.758C499.754 351.532 499.574 351.32 499.39 351.122C499.209 350.929 499.019 350.746 498.819 350.573C498.623 350.403 498.417 350.246 498.202 350.103C497.999 349.967 497.786 349.846 497.566 349.74C497.356 349.639 497.138 349.554 496.914 349.487C496.696 349.422 496.473 349.374 496.247 349.345Z" fill="#1F4B8C"/>
<path d="M496.247 392.844L343.794 389.19C342.967 389.169 342.141 389.254 341.335 389.441C340.928 389.536 340.528 389.655 340.137 389.8C339.736 389.948 339.345 390.119 338.965 390.314C338.591 390.507 338.227 390.72 337.875 390.952C337.517 391.19 337.172 391.446 336.842 391.72C336.503 392.002 336.178 392.301 335.869 392.616C335.555 392.936 335.253 393.276 334.962 393.636C334.671 393.997 334.395 394.374 334.134 394.765C333.874 395.157 333.63 395.563 333.401 395.984C333.173 396.404 332.961 396.839 332.765 397.287C332.57 397.736 332.392 398.198 332.231 398.672C332.064 399.163 331.917 399.662 331.792 400.168C331.666 400.675 331.561 401.188 331.477 401.708C331.394 402.228 331.331 402.754 331.287 403.286C331.243 403.818 331.221 404.353 331.221 404.894C331.223 405.434 331.245 405.969 331.287 406.501C331.329 407.032 331.393 407.557 331.477 408.077C331.562 408.594 331.668 409.105 331.793 409.611C331.919 410.117 332.065 410.615 332.232 411.105C332.393 411.58 332.571 412.042 332.767 412.489C332.962 412.936 333.174 413.37 333.402 413.789C333.631 414.208 333.875 414.613 334.136 415.003C334.396 415.391 334.671 415.765 334.963 416.123C335.255 416.482 335.557 416.82 335.871 417.138C336.179 417.451 336.504 417.748 336.843 418.027C337.174 418.299 337.519 418.554 337.877 418.789C338.228 419.019 338.592 419.23 338.967 419.419C339.347 419.612 339.738 419.781 340.138 419.926C340.53 420.068 340.93 420.186 341.336 420.278C341.739 420.369 342.146 420.436 342.557 420.476C342.968 420.515 343.382 420.528 343.795 420.516L496.247 415.874C496.471 415.867 496.694 415.842 496.914 415.797C497.136 415.752 497.354 415.689 497.566 415.608C497.785 415.524 497.998 415.423 498.202 415.307C498.417 415.185 498.623 415.048 498.819 414.897C499.019 414.744 499.209 414.579 499.39 414.403C499.579 414.218 499.758 414.024 499.927 413.82C500.1 413.613 500.268 413.39 500.43 413.151C500.592 412.912 500.747 412.661 500.897 412.397C501.046 412.132 501.187 411.857 501.32 411.572C501.453 411.287 501.578 410.993 501.694 410.689C501.81 410.38 501.918 410.065 502.017 409.745C502.115 409.425 502.205 409.096 502.287 408.757C502.372 408.409 502.446 408.055 502.508 407.695C502.57 407.334 502.623 406.969 502.667 406.6C502.709 406.229 502.741 405.856 502.762 405.479C502.783 405.102 502.794 404.723 502.794 404.34C502.793 403.961 502.782 403.582 502.762 403.203C502.742 402.825 502.711 402.451 502.667 402.083C502.624 401.713 502.571 401.348 502.508 400.989C502.445 400.63 502.371 400.275 502.287 399.923C502.205 399.584 502.115 399.253 502.016 398.932C501.917 398.61 501.81 398.297 501.694 397.994C501.578 397.691 501.454 397.397 501.321 397.113C501.188 396.828 501.047 396.554 500.897 396.291C500.748 396.027 500.592 395.776 500.43 395.539C500.269 395.302 500.101 395.08 499.928 394.873C499.759 394.67 499.58 394.477 499.39 394.293C499.21 394.119 499.019 393.955 498.82 393.803C498.624 393.653 498.417 393.518 498.203 393.397C497.998 393.282 497.786 393.183 497.566 393.101C497.354 393.022 497.136 392.96 496.914 392.916C496.694 392.873 496.471 392.849 496.247 392.844" fill="#DFE8F2"/>
<path d="M496.247 433.97L343.794 445.128C343.378 445.159 342.965 445.215 342.556 445.296C342.143 445.379 341.735 445.487 341.335 445.619C340.927 445.754 340.527 445.912 340.137 446.094C339.735 446.282 339.344 446.491 338.966 446.722C338.59 446.952 338.226 447.2 337.875 447.466C337.52 447.737 337.176 448.027 336.842 448.334C336.508 448.643 336.183 448.973 335.869 449.323C335.555 449.673 335.253 450.043 334.962 450.431C334.671 450.821 334.395 451.224 334.134 451.641C333.874 452.059 333.63 452.488 333.401 452.931C333.173 453.374 332.961 453.829 332.766 454.297C332.57 454.764 332.392 455.243 332.231 455.733C332.064 456.24 331.917 456.753 331.792 457.273C331.666 457.792 331.561 458.316 331.477 458.843C331.394 459.372 331.331 459.904 331.287 460.439C331.243 460.975 331.221 461.513 331.221 462.053C331.223 462.593 331.245 463.127 331.287 463.654C331.329 464.182 331.393 464.701 331.477 465.212C331.562 465.725 331.668 466.227 331.793 466.721C331.919 467.214 332.065 467.697 332.232 468.171C332.393 468.629 332.571 469.072 332.767 469.5C332.962 469.928 333.174 470.341 333.402 470.738C333.631 471.135 333.875 471.515 334.136 471.88C334.393 472.242 334.67 472.59 334.963 472.923C335.249 473.247 335.552 473.555 335.871 473.846C336.18 474.129 336.504 474.394 336.843 474.64C337.174 474.88 337.519 475.1 337.877 475.3C338.229 475.497 338.593 475.673 338.967 475.827C339.348 475.984 339.74 476.116 340.138 476.223C340.532 476.327 340.932 476.405 341.336 476.457C341.741 476.509 342.149 476.535 342.557 476.534C342.971 476.533 343.385 476.507 343.795 476.454L496.247 457.008C496.473 456.979 496.696 456.931 496.914 456.866C497.138 456.798 497.356 456.714 497.566 456.613C497.786 456.507 497.999 456.386 498.202 456.25C498.417 456.106 498.623 455.95 498.819 455.78C499.019 455.607 499.209 455.424 499.39 455.23C499.572 455.033 499.751 454.821 499.927 454.595C500.1 454.369 500.268 454.129 500.43 453.876C500.592 453.623 500.747 453.357 500.897 453.077C501.046 452.8 501.187 452.511 501.32 452.211C501.453 451.911 501.578 451.604 501.694 451.288C501.81 450.971 501.918 450.647 502.017 450.316C502.115 449.984 502.205 449.645 502.287 449.298C502.372 448.938 502.446 448.575 502.508 448.208C502.57 447.841 502.623 447.471 502.667 447.098C502.709 446.725 502.741 446.349 502.762 445.97C502.783 445.591 502.794 445.211 502.794 444.828C502.792 444.447 502.781 444.07 502.762 443.695C502.742 443.321 502.71 442.951 502.666 442.586C502.624 442.22 502.571 441.86 502.508 441.506C502.445 441.152 502.371 440.804 502.287 440.462C502.205 440.131 502.115 439.81 502.017 439.498C501.919 439.186 501.812 438.884 501.694 438.592C501.577 438.3 501.453 438.018 501.321 437.747C501.187 437.478 501.045 437.218 500.895 436.968C500.746 436.717 500.59 436.482 500.428 436.263C500.272 436.048 500.104 435.842 499.926 435.645C499.757 435.459 499.578 435.283 499.388 435.118C499.208 434.961 499.017 434.815 498.818 434.683C498.621 434.552 498.415 434.437 498.201 434.337C497.995 434.241 497.783 434.163 497.565 434.102C497.137 433.983 496.691 433.938 496.247 433.97" fill="#DFE8F2"/>
<path d="M413.152 436.015C414.118 437.622 415.639 438.818 417.428 439.376C419.217 439.934 421.148 439.815 422.855 439.042C424.562 438.27 425.927 436.896 426.689 435.183C427.451 433.47 427.558 431.537 426.99 429.75L456.537 369.003L442.394 360.423L416.876 424.949C416.779 424.987 416.683 425.026 416.588 425.068C416.494 425.11 416.399 425.153 416.305 425.198C416.212 425.244 416.118 425.291 416.026 425.341C415.933 425.391 415.842 425.444 415.751 425.499C414.013 426.548 412.763 428.246 412.275 430.218C411.788 432.19 412.103 434.275 413.151 436.014L413.152 436.015Z" fill="#FFDBAC"/>
<path d="M450.897 392.427L429.906 387.044C429.906 387.044 430.592 385.493 431.705 382.925C432.819 380.356 434.376 376.775 436.126 372.708C437.877 368.642 439.819 364.098 441.716 359.607C443.613 355.116 445.458 350.678 447.012 346.832C448.566 342.986 450.332 340.682 452.106 339.391C453.574 338.274 455.424 337.782 457.253 338.022C458.674 338.234 460.033 338.751 461.235 339.539C461.804 339.893 462.339 340.3 462.834 340.753L467.7 349.61L450.897 392.427Z" fill="#0B4DAF"/>
<path d="M282.911 387.617C282.402 387.654 281.896 387.72 281.396 387.814C280.891 387.909 280.393 388.031 279.902 388.181C279.404 388.333 278.915 388.512 278.436 388.718C277.946 388.928 277.467 389.163 277.002 389.423C276.546 389.679 276.101 389.958 275.667 390.259C275.232 390.56 274.809 390.883 274.4 391.229C273.99 391.574 273.593 391.942 273.208 392.333C272.823 392.723 272.452 393.136 272.095 393.569C271.738 394.002 271.399 394.451 271.08 394.916C270.76 395.38 270.46 395.859 270.18 396.351C269.902 396.845 269.643 397.352 269.401 397.872C269.16 398.393 268.94 398.925 268.743 399.469C268.537 400.034 268.356 400.605 268.202 401.181C268.047 401.758 267.918 402.339 267.815 402.926C267.711 403.512 267.634 404.102 267.582 404.696C267.53 405.291 267.504 405.887 267.504 406.486C267.504 407.085 267.53 407.677 267.582 408.26C267.634 408.844 267.711 409.418 267.815 409.984C267.918 410.55 268.047 411.105 268.202 411.651C268.356 412.196 268.536 412.73 268.741 413.253C268.94 413.758 269.16 414.247 269.399 414.719C269.636 415.186 269.897 415.641 270.179 416.082C270.457 416.515 270.758 416.933 271.079 417.334C271.397 417.734 271.736 418.116 272.095 418.479C272.447 418.837 272.819 419.175 273.208 419.492C273.589 419.803 273.987 420.092 274.4 420.358C275.216 420.883 276.089 421.313 277.002 421.639C277.939 421.974 278.912 422.195 279.901 422.298C280.397 422.349 280.896 422.371 281.394 422.364C281.901 422.357 282.407 422.321 282.909 422.257C283.416 422.192 283.92 422.099 284.416 421.979C284.915 421.859 285.406 421.711 285.889 421.537C286.377 421.361 286.855 421.159 287.321 420.932C287.797 420.702 288.26 420.447 288.71 420.169C289.148 419.896 289.574 419.603 289.989 419.29C290.404 418.977 290.806 418.643 291.195 418.289C291.585 417.935 291.96 417.561 292.323 417.168C292.685 416.775 293.033 416.363 293.367 415.932C293.704 415.5 294.02 415.056 294.317 414.599C294.614 414.142 294.892 413.673 295.151 413.192C295.41 412.711 295.65 412.218 295.871 411.715C296.091 411.211 296.292 410.697 296.473 410.172C296.661 409.629 296.826 409.081 296.967 408.528C297.108 407.976 297.225 407.42 297.32 406.859C297.414 406.299 297.484 405.735 297.532 405.168C297.579 404.602 297.603 404.033 297.603 403.462C297.603 402.89 297.579 402.326 297.532 401.769C297.485 401.212 297.414 400.662 297.32 400.121C297.226 399.58 297.108 399.048 296.967 398.523C296.825 397.998 296.661 397.483 296.473 396.978C296.291 396.49 296.09 396.016 295.871 395.556C295.648 395.098 295.407 394.654 295.148 394.223C294.635 393.372 294.039 392.574 293.367 391.842C293.038 391.481 292.69 391.138 292.325 390.814C291.966 390.496 291.59 390.197 291.198 389.919C290.81 389.644 290.408 389.391 289.992 389.161C289.577 388.93 289.149 388.723 288.71 388.541C287.805 388.164 286.858 387.895 285.889 387.74C285.402 387.662 284.91 387.613 284.417 387.593C283.915 387.573 283.411 387.581 282.91 387.618" fill="#DFE8F2"/>
<path d="M282.911 449.583C282.402 449.621 281.896 449.687 281.396 449.781C280.891 449.876 280.393 449.998 279.902 450.148C279.404 450.3 278.915 450.479 278.436 450.684C277.946 450.894 277.467 451.13 277.002 451.39C276.546 451.646 276.101 451.925 275.667 452.226C275.232 452.527 274.809 452.85 274.4 453.196C273.99 453.541 273.593 453.909 273.208 454.299C272.823 454.69 272.452 455.102 272.095 455.535C271.738 455.969 271.399 456.418 271.08 456.882C270.76 457.347 270.46 457.825 270.18 458.318C269.902 458.812 269.643 459.319 269.401 459.839C269.16 460.359 268.94 460.892 268.743 461.436C268.537 462.001 268.356 462.572 268.202 463.148C268.047 463.725 267.918 464.306 267.815 464.892C267.711 465.479 267.634 466.069 267.582 466.663C267.53 467.257 267.504 467.854 267.504 468.453C267.504 469.052 267.53 469.643 267.582 470.227C267.634 470.81 267.711 471.385 267.815 471.951C267.918 472.516 268.047 473.072 268.202 473.617C268.356 474.163 268.536 474.697 268.741 475.22C268.94 475.725 269.16 476.213 269.399 476.685C269.636 477.152 269.897 477.607 270.179 478.048C270.457 478.481 270.758 478.899 271.079 479.301C271.397 479.7 271.736 480.083 272.095 480.446C272.447 480.803 272.819 481.141 273.208 481.459C273.589 481.769 273.987 482.058 274.4 482.324C275.216 482.849 276.089 483.279 277.002 483.606C277.939 483.941 278.912 484.162 279.901 484.265C280.397 484.316 280.896 484.338 281.394 484.331C281.901 484.324 282.407 484.288 282.909 484.223C283.416 484.159 283.92 484.066 284.416 483.946C284.915 483.825 285.406 483.678 285.889 483.504C286.377 483.327 286.855 483.126 287.321 482.899C287.797 482.668 288.26 482.413 288.71 482.136C289.148 481.862 289.574 481.569 289.989 481.256C290.404 480.943 290.806 480.61 291.195 480.256C291.585 479.901 291.96 479.528 292.323 479.135C292.685 478.742 293.033 478.33 293.367 477.898C293.704 477.467 294.02 477.023 294.317 476.566C294.614 476.109 294.892 475.64 295.151 475.159C295.41 474.677 295.65 474.185 295.871 473.681C296.091 473.178 296.292 472.663 296.473 472.139C296.661 471.595 296.826 471.048 296.967 470.495C297.108 469.943 297.225 469.386 297.32 468.826C297.414 468.265 297.484 467.702 297.532 467.135C297.579 466.569 297.603 466 297.603 465.428C297.603 464.857 297.579 464.293 297.532 463.736C297.485 463.178 297.414 462.629 297.32 462.087C297.226 461.547 297.108 461.014 296.967 460.49C296.825 459.965 296.661 459.45 296.473 458.945C296.291 458.456 296.09 457.982 295.871 457.523C295.648 457.065 295.407 456.621 295.148 456.19C294.635 455.339 294.039 454.541 293.367 453.808C293.038 453.448 292.69 453.105 292.325 452.781C291.966 452.462 291.59 452.164 291.198 451.886C290.81 451.611 290.408 451.358 289.992 451.127C289.577 450.897 289.149 450.69 288.71 450.508C287.805 450.13 286.858 449.861 285.889 449.707C285.402 449.629 284.91 449.58 284.417 449.56C283.915 449.539 283.411 449.548 282.91 449.585" fill="#DFE8F2"/>
<path d="M282.913 320.858C282.408 320.845 281.902 320.862 281.398 320.907C280.897 320.952 280.398 321.026 279.905 321.129C279.409 321.232 278.919 321.364 278.439 321.524C277.95 321.686 277.472 321.875 277.004 322.09C276.547 322.301 276.102 322.536 275.669 322.794C275.233 323.054 274.81 323.337 274.402 323.642C273.989 323.951 273.591 324.281 273.21 324.63C272.823 324.986 272.452 325.363 272.095 325.761C271.738 326.16 271.4 326.576 271.08 327.01C270.76 327.443 270.46 327.893 270.18 328.358C269.901 328.83 269.641 329.313 269.399 329.808C269.158 330.303 268.938 330.814 268.741 331.341C268.536 331.885 268.356 332.438 268.202 332.999C268.047 333.561 267.918 334.13 267.815 334.706C267.711 335.284 267.634 335.867 267.582 336.454C267.53 337.042 267.504 337.635 267.504 338.234C267.504 338.832 267.53 339.425 267.582 340.014C267.634 340.602 267.711 341.185 267.815 341.76C267.918 342.336 268.047 342.904 268.202 343.464C268.356 344.025 268.536 344.576 268.741 345.119C268.94 345.643 269.16 346.153 269.399 346.648C269.641 347.142 269.902 347.621 270.182 348.085C270.462 348.549 270.762 348.997 271.082 349.428C271.401 349.86 271.739 350.274 272.097 350.67C272.454 351.065 272.825 351.439 273.21 351.79C273.589 352.138 273.985 352.467 274.397 352.775C274.804 353.077 275.227 353.357 275.663 353.614C276.096 353.869 276.541 354.101 276.999 354.309C277.466 354.522 277.944 354.708 278.433 354.866C279.393 355.177 280.386 355.376 281.392 355.459C282.4 355.543 283.413 355.512 284.414 355.368C284.91 355.296 285.401 355.196 285.886 355.069C286.372 354.94 286.85 354.785 287.319 354.603C287.793 354.419 288.256 354.21 288.708 353.975C289.147 353.746 289.575 353.495 289.989 353.223C290.406 352.948 290.809 352.653 291.196 352.339C291.585 352.022 291.96 351.685 292.323 351.327C292.685 350.97 293.033 350.591 293.367 350.192C293.704 349.793 294.02 349.38 294.317 348.952C294.614 348.524 294.892 348.081 295.151 347.625C295.411 347.169 295.651 346.7 295.871 346.218C296.09 345.736 296.291 345.242 296.473 344.737C296.661 344.212 296.826 343.68 296.967 343.141C297.108 342.602 297.225 342.058 297.32 341.506C297.414 340.953 297.485 340.395 297.532 339.833C297.579 339.271 297.603 338.705 297.603 338.133C297.603 337.562 297.579 336.996 297.532 336.434C297.485 335.872 297.414 335.315 297.32 334.765C297.226 334.215 297.108 333.67 296.967 333.132C296.825 332.593 296.661 332.062 296.473 331.539C296.291 331.033 296.09 330.54 295.871 330.059C295.651 329.578 295.41 329.11 295.148 328.654C294.889 328.202 294.611 327.763 294.314 327.336C294.017 326.909 293.702 326.497 293.367 326.102C293.035 325.707 292.688 325.331 292.325 324.975C291.963 324.619 291.587 324.285 291.198 323.971C290.811 323.658 290.409 323.365 289.993 323.093C289.578 322.823 289.151 322.575 288.711 322.349C288.26 322.117 287.796 321.91 287.322 321.729C286.854 321.55 286.375 321.398 285.889 321.273C285.405 321.148 284.913 321.052 284.417 320.983C283.917 320.914 283.414 320.874 282.91 320.862L282.913 320.858ZM282.91 319.212C285.123 319.273 287.293 319.835 289.258 320.856C291.21 321.878 292.94 323.277 294.348 324.972C295.82 326.739 296.967 328.753 297.734 330.921C299.377 335.588 299.377 340.677 297.734 345.344C296.966 347.519 295.82 349.541 294.348 351.316C292.94 353.019 291.21 354.428 289.257 355.461C287.295 356.495 285.125 357.071 282.909 357.147C280.68 357.22 278.464 356.778 276.433 355.855C274.382 354.915 272.548 353.562 271.045 351.879C269.449 350.098 268.199 348.033 267.361 345.792C265.546 340.913 265.546 335.544 267.361 330.665C268.2 328.417 269.449 326.345 271.045 324.554C272.548 322.862 274.381 321.497 276.433 320.543C278.462 319.607 280.679 319.151 282.913 319.21L282.91 319.212Z" fill="#1F4B8C"/>
<path d="M282.912 342.842L277.723 332.024L278.955 331.221L283.229 340.108L301.174 319L302.26 320.158L282.912 342.842Z" fill="#1F4B8C"/>
<path d="M471.755 556.044L458.91 555.993L463.052 589.583L471.755 589.626V556.044Z" fill="#FFDBAC"/>
<path d="M473.974 598.078L445.927 597.93V597.575C445.926 596.855 445.996 596.136 446.136 595.429C446.412 594.035 446.962 592.71 447.753 591.53C448.557 590.334 449.588 589.308 450.787 588.509C451.97 587.722 453.297 587.178 454.691 586.908C455.398 586.772 456.117 586.706 456.837 586.71L473.974 586.795V598.078Z" fill="#0B4DAF"/>
<path d="M430.626 555.884L417.817 555.834L421.946 589.378L430.626 589.421V555.884Z" fill="#FFDBAC"/>
<path d="M432.839 597.86L404.865 597.713V597.358C404.865 596.639 404.935 595.922 405.075 595.216C405.35 593.824 405.898 592.5 406.687 591.322C407.489 590.127 408.517 589.102 409.713 588.304C410.893 587.519 412.217 586.976 413.608 586.707C414.313 586.571 415.03 586.505 415.748 586.509L432.839 586.593V597.86Z" fill="#0B4DAF"/>
<path d="M430.082 418.596L408.543 499.036L416.427 576.143L433.883 576.624L430.082 507.001L451.859 472.256L456.582 577.098L472.417 575.978L481.226 485.835C484.217 478.796 486.412 471.444 487.767 463.916C488.832 458.007 489.35 452.013 489.314 446.009C489.296 441.966 488.986 437.931 488.385 433.934C488.171 432.444 487.88 430.966 487.515 429.506L481.093 422.991L430.082 418.596Z" fill="#1A1B23"/>
<path d="M458.619 432.05C454.997 432.05 451.598 431.933 448.516 431.704C445.368 431.487 442.236 431.075 439.139 430.468C436.503 429.976 433.935 429.167 431.492 428.059C429.525 427.209 427.815 425.858 426.531 424.141L426.385 423.928L432.272 385.586L438.62 342.474C439.038 339.622 440.49 337.022 442.699 335.171C444.907 333.319 447.72 332.346 450.599 332.435L470.482 333.044C471.973 333.09 473.44 333.435 474.795 334.058C476.15 334.682 477.367 335.571 478.372 336.674C479.378 337.777 480.152 339.07 480.648 340.478C481.145 341.886 481.354 343.379 481.264 344.869L478.654 387.743L488.281 430.034L487.599 430.129C487.325 430.166 486.268 430.305 484.613 430.492C482.45 430.735 480.241 430.954 478.048 431.144C474.945 431.411 471.909 431.622 469.024 431.769C465.364 431.956 461.857 432.046 458.619 432.05Z" fill="#0B4DAF"/>
<path d="M447.586 324.816C447.58 324.816 447.575 324.816 447.57 324.816C447.153 324.816 446.74 324.733 446.354 324.573C445.969 324.413 445.619 324.179 445.324 323.884C445.029 323.588 444.796 323.238 444.636 322.852C444.477 322.466 444.395 322.053 444.395 321.635V303.896C444.392 300.718 445.028 297.571 446.264 294.644C448.685 288.931 453.216 284.373 458.912 281.921C462.514 280.374 466.444 279.746 470.348 280.093C474.253 280.439 478.011 281.749 481.285 283.906C484.56 286.062 487.249 288.997 489.111 292.449C490.974 295.901 491.952 299.761 491.958 303.684V321.45C491.959 321.878 491.873 322.301 491.707 322.695C491.38 323.463 490.77 324.075 490.003 324.403C489.61 324.572 489.187 324.659 488.759 324.66L447.583 324.816H447.586Z" fill="#1A1B23"/>
<path d="M478.915 297.812C480.574 300.843 481.297 304.299 480.995 307.742C480.692 311.185 479.377 314.461 477.215 317.156C475.053 319.851 472.141 321.845 468.847 322.885C465.554 323.926 462.026 323.966 458.71 323.001C456.514 322.369 454.465 321.308 452.681 319.878C450.898 318.449 449.416 316.679 448.321 314.672C446.667 311.642 445.946 308.189 446.249 304.749C446.553 301.309 447.867 298.037 450.026 295.343C452.186 292.65 455.094 290.657 458.384 289.615C461.674 288.573 465.198 288.53 468.513 289.49C470.711 290.119 472.762 291.179 474.548 292.607C476.333 294.036 477.818 295.805 478.915 297.813V297.812Z" fill="#FFDBAC"/>
<path d="M438.773 305.339C438.771 302.826 439.273 300.337 440.251 298.022C442.165 293.505 445.748 289.901 450.253 287.962C452.564 286.971 455.05 286.456 457.565 286.446L461.113 286.428C461.152 286.428 461.192 286.428 461.232 286.428C463.689 286.43 466.121 286.915 468.391 287.858C470.66 288.8 472.721 290.18 474.457 291.92C476.193 293.659 477.57 295.724 478.509 297.996C479.448 300.268 479.93 302.703 479.929 305.161V305.517L472.423 305.547L469.864 298.392L469.352 305.561L465.475 305.578L464.185 301.968L463.926 305.583L438.776 305.695L438.773 305.339Z" fill="#1A1B23"/>
<path d="M408.557 342.658C407.402 342.941 406.322 343.47 405.391 344.211C404.664 344.787 404.041 345.485 403.553 346.273C402.588 347.835 402.163 349.67 402.343 351.496C402.434 352.419 402.684 353.319 403.082 354.156C403.573 355.2 404.28 356.127 405.155 356.877C406.031 357.627 407.055 358.182 408.161 358.507C409.267 358.831 410.429 358.917 411.57 358.759C412.712 358.602 413.807 358.203 414.783 357.59C414.855 357.544 414.926 357.497 414.997 357.449C415.067 357.401 415.137 357.352 415.205 357.302C415.273 357.252 415.34 357.202 415.407 357.15C415.473 357.099 415.538 357.047 415.603 356.994L457.02 371.745C458.294 372.198 459.681 372.225 460.972 371.822C462.263 371.418 463.388 370.606 464.178 369.507L473.997 355.902L462.126 347.902L455.896 354.985L417.993 347.439C417.952 347.341 417.909 347.243 417.865 347.146C417.82 347.049 417.774 346.952 417.726 346.855C417.677 346.759 417.627 346.663 417.575 346.568C417.523 346.473 417.468 346.379 417.41 346.285C416.506 344.823 415.162 343.684 413.572 343.033C411.982 342.381 410.226 342.25 408.557 342.658Z" fill="#FFDBAC"/>
<path d="M456.564 350.518C457.803 348.971 459.535 346.962 461.295 344.969C463.055 342.977 464.841 341.002 466.189 339.524C467.536 338.047 468.442 337.068 468.442 337.068C469.686 335.186 471.542 333.793 473.695 333.126C475.848 332.459 478.166 332.558 480.255 333.406C482.343 334.255 484.074 335.801 485.153 337.782C486.231 339.763 486.591 342.056 486.172 344.273C485.932 345.549 485.437 346.763 484.716 347.843C484.716 347.843 483.365 349.612 481.326 352.253C479.286 354.894 476.557 358.41 473.805 361.905C471.052 365.401 468.273 368.878 466.13 371.445C463.987 374.011 462.478 375.669 462.266 375.527L454.791 353.29C454.578 353.148 455.325 352.066 456.564 350.518Z" fill="#0B4DAF"/>
<path d="M461.001 324.257C460.884 324.831 460.929 325.426 461.133 325.974C461.235 326.255 461.376 326.52 461.552 326.762C461.702 326.968 461.877 327.155 462.071 327.32C462.647 327.808 463.377 328.073 464.132 328.07C464.179 328.07 464.226 328.068 464.273 328.066C464.32 328.064 464.366 328.061 464.413 328.056C464.461 328.052 464.508 328.047 464.555 328.04C464.602 328.034 464.649 328.026 464.697 328.018L467.361 327.533L471.03 319.689V326.874L483.141 324.692V294.2L462.837 294.298L463.339 294.881C465.005 296.838 466.099 299.218 466.501 301.758C466.895 304.33 466.845 306.951 466.355 309.507C465.878 312.093 465.154 314.627 464.193 317.075C463.353 319.243 462.389 321.361 461.305 323.419C461.165 323.682 461.063 323.965 461.001 324.257Z" fill="#1A1B23"/>
<path d="M294.726 599H571.274C571.467 599 571.651 598.947 571.787 598.854C571.924 598.76 572 598.633 572 598.5C572 598.367 571.924 598.24 571.787 598.146C571.651 598.053 571.467 598 571.274 598H294.726C294.533 598 294.349 598.053 294.213 598.146C294.076 598.24 294 598.367 294 598.5C294 598.633 294.076 598.76 294.213 598.854C294.349 598.947 294.533 599 294.726 599Z" fill="#08387F"/>
</g>
</g>
<defs>
<linearGradient id="paint0_linear_208_13" x1="105.5" y1="182.5" x2="627.5" y2="786" gradientUnits="userSpaceOnUse">
<stop stop-color="#F0F5FF"/>
<stop offset="1" stop-color="#FFFBE0"/>
</linearGradient>
<linearGradient id="paint1_linear_208_13" x1="36.9297" y1="407.387" x2="95.25" y2="-204.01" gradientUnits="userSpaceOnUse">
<stop stop-color="#F0F5FF"/>
<stop offset="1" stop-color="#FFFBE0"/>
</linearGradient>
<linearGradient id="paint2_linear_208_13" x1="551" y1="78.5" x2="525.5" y2="671" gradientUnits="userSpaceOnUse">
<stop stop-color="#08387F"/>
<stop offset="1" stop-color="#0B4DAF"/>
</linearGradient>
<clipPath id="clip0_208_13">
<rect width="796" height="798" fill="white"/>
</clipPath>
<clipPath id="clip1_208_13">
<rect width="372" height="314" fill="white" transform="translate(491 232)"/>
</clipPath>
<clipPath id="clip2_208_13">
<rect width="306" height="319" fill="white" transform="translate(266 280)"/>
</clipPath>
</defs>
</svg>
